<svg xmlns="http://www.w3.org/2000/svg" viewBox="0 0 131.54 112.68"><defs><style>.cls-1{fill:none;stroke:#000;stroke-linecap:square;stroke-miterlimit:10;stroke-width:1.1px;}</style></defs><g id="Layer_2" data-name="Layer 2"><g id="Layer_1-2" data-name="Layer 1"><path d="M90.76,43.68a12,12,0,0,0,.57-6.08c-.44-3.18-.84-6.35-1.25-9.53-.12-.93-.28-1.85-.42-2.77-.15-.58-1.58-.33-1.58-.33s-1.22.29-4.38.69a3.49,3.49,0,0,1-2.5-.25,2,2,0,0,0-.53-.14A16.1,16.1,0,0,0,76.81,25H70c-1.89,0-3.8.05-5.71.05H39.82c-.47,0-.94.08-1.46.13V31.1a1.2,1.2,0,0,1-1,1.1s-1.48.23-2.14.35c-1.1.2-3.63.5-4.76.71h0l-.92.22s.16,1.1.23,1.55c.38,2.57.76,5.15,1.16,7.67.28,1.7.56,3.4.93,5.09a9,9,0,0,0,6.58,6.46c.09,5,0,1.09,0,16.23C44,70.48,55,70.35,55,70.35l0-9.6s.07-4.39,0-6.58c0-.8.14-.92.93-1.1s1.47-.28,2.2-.39L67,51.4s1.09-.15,1,.25c.1,1.41.17,2.84.27,4.25a2,2,0,0,0,.19.87,3.1,3.1,0,0,1,.37,1.46c.16,2.37.33,5.92.49,8.29.07,1,.12,2,.26,3,.08.75.07,1.16.73,1H86.5c0-.09.08-.14.09-.19a.62.62,0,0,0,0-.27,17.74,17.74,0,0,1-1-6.42c0-1.1,0-6.2-.29-7.85a9.87,9.87,0,0,0-3.62-6,2.89,2.89,0,0,1-.47-.38,24.72,24.72,0,0,1,2.68-.49C88.53,47.8,90,45.4,90.76,43.68Zm-16.83,6c-4,.56-7.92,1.09-11.88,1.6L51.89,52.67l-7.74,1a17.8,17.8,0,0,1-4.61.15A8,8,0,0,1,33,47.88,43.4,43.4,0,0,1,31.7,41.3c-.26-1.67-.53-3.29-.77-5-.08-.59-.23-1.66-.33-2.37,2.79-.42,7.59-1.37,10.15-1.72,2.25-.31,4.51-.55,6.76-.87,2.84-.39,5.66-.84,8.51-1.25s5.4-.71,8.11-1.09l9.39-1.34,7.19-1,7.47-1c.58-.07.67,0,.78.6a5.78,5.78,0,0,0,.1.81c.35,2.64.7,5.27,1,7.92a26.74,26.74,0,0,1,.31,6.32,7.16,7.16,0,0,1-3.61,5.57,12.4,12.4,0,0,1-4.44,1.56Z"/><path d="M38.14,43.4l47.57-3.07a6.07,6.07,0,0,1,.12.84,14.58,14.58,0,0,1-.08,2.19,3.29,3.29,0,0,1-3.29,3c-2.77.19-5.49.34-8.3.51l-13.33.86-10.73.69c-2.43.15-4.86.34-7.3.46a8.4,8.4,0,0,1-2.06-.17,2.53,2.53,0,0,1-2.19-2.2C38.37,45.53,38.29,44.54,38.14,43.4Zm1.24,1v.67c.06.39.14.77.23,1.15a2.09,2.09,0,0,0,2.2,1.7c.81,0,1.62,0,2.43-.08l11.63-.71L64,46.64l7.13-.43,7.38-.52c1.32-.09,2.64-.17,4-.3a2.53,2.53,0,0,0,2.31-1.6,4.68,4.68,0,0,0,.13-2.29C83.84,41.33,40.57,44.07,39.38,44.38Z"/><ellipse cx="57.49" cy="33.62" rx="2.01" ry="2.39" transform="translate(16.08 85.78) rotate(-81.87)"/><ellipse cx="80.12" cy="37.41" rx="2.01" ry="2.39" transform="translate(31.76 111.44) rotate(-81.87)"/><path class="cls-1" d="M70.23,70.54h19a7.34,7.34,0,0,0,7.34-7.33h0V7.88A7.34,7.34,0,0,0,89.2.55H33.88a7.34,7.34,0,0,0-7.34,7.33V63.2a7.33,7.33,0,0,0,7.32,7.34H54.49"/><path d="M22.9,107.92c.54-1.11.14-2.11,0-3.12a4,4,0,0,1,0-1A4.6,4.6,0,0,1,25,99.94a5.7,5.7,0,0,1,2.43-.56,12.4,12.4,0,0,1,3.22.23,5.35,5.35,0,0,1,2.63,1.27,3.37,3.37,0,0,1,.18,5,8.63,8.63,0,0,1-1.56,1.52,9.21,9.21,0,0,1-1.5.66,10.08,10.08,0,0,0-1.27.75.53.53,0,0,0-.06.48.63.63,0,0,0,.41.27c.68.13,1.36.25,2.05.33a3.55,3.55,0,0,0,1.08,0,6.52,6.52,0,0,0,2.1-.57c.46-.27,1-.32,1.42-.79a4.16,4.16,0,0,1,1.18-.87,3.48,3.48,0,0,0,1.29-2.13,21.36,21.36,0,0,1,.82-2,1.65,1.65,0,0,1,1.47-.56,1.39,1.39,0,0,1,.68,1.27c0,.73,0,1.47,0,2.2a2.48,2.48,0,0,0,.65,1.65c.41.52.91.16,1.35.29,1.17.34,2.06-.37,2.88-1s1.84-1.65,2.72-2.51c.29-.29.41-.77.71-1a3.28,3.28,0,0,1,1.24-.68c.44-.12.9.42.92.92a9.55,9.55,0,0,0,.15,3,10.63,10.63,0,0,0,.45,1.23c.37.73,1.08.51,1.67.46.4,0,.87.05,1.15-.45.09-.18.5-.16.73-.29.45-.24.88-.53,1.32-.79a10.78,10.78,0,0,1,1.16-.62c.42-.17.72-.56,1.07-.72.86-.39,1.58-1.22,2.68-1a1.77,1.77,0,0,1,1.25,1.35,4.25,4.25,0,0,1-.7,2.22.38.38,0,0,1-.3.13.78.78,0,0,1-.32-.12c-.46-.24-.7-1-1.41-.63-.5.25-1,.52-1.49.81s-1.06.74-1.61,1.07a8.56,8.56,0,0,0-1.63.91,2.23,2.23,0,0,1-1.34.65c-.65.09-1.25.67-2,.3A11.63,11.63,0,0,1,51,110.32,5.85,5.85,0,0,1,49.93,109a4.48,4.48,0,0,1-.34-1.11.78.78,0,0,0-.13-.18c-.37.24-.85.25-1,.87-.06.29-.58.47-.84.74a7.23,7.23,0,0,1-2.56,1.58,5.78,5.78,0,0,1-3.13.32c-.11,0-.19-.18-.28-.26a2.18,2.18,0,0,1-.72-.18c-.55-.35-1.2-.57-1.55-1.21,0-.1-.42-.14-.55,0-.59.4-1.13.88-1.72,1.28a4.86,4.86,0,0,1-2.16,1,6.62,6.62,0,0,0-1.44.49,3.57,3.57,0,0,1-2.35.13,13.08,13.08,0,0,0-1.39-.26,6.86,6.86,0,0,1-1.38-.39,17.64,17.64,0,0,1-2.69-1.41,2.4,2.4,0,0,0-1.67-.29c-.79,0-1.56.45-2.43,0a7.21,7.21,0,0,0-2.26-.18,4,4,0,0,1-1-.21c-.72-.22-1.44-.43-2.14-.71s-1.23-.58-1.85-.87l-3.2-1.51a4.34,4.34,0,0,1-.46-.28c-.88-.54-1.76-1.1-2.64-1.63S6.18,103.6,5.23,103a1.5,1.5,0,0,1-.41-1.51,1.24,1.24,0,0,1,1.46-.57,1.24,1.24,0,0,0,.47,0c.65-.08,1.3-.13,1.94-.26a8.19,8.19,0,0,0,.91-.41,7.43,7.43,0,0,0,1.21-.38c.74-.45,1.41-1,2.13-1.49a2.32,2.32,0,0,1,.46-.14A4,4,0,0,1,15,96.38c.18-.09.21-.43.36-.61s.56-.63.84-1,.16-.46.28-.69a21.47,21.47,0,0,0,1.08-2.57,8,8,0,0,0,.5-4c-.08-.45,0-.94-.06-1.38a6.15,6.15,0,0,0-.55-1.36,11.87,11.87,0,0,0-1-1.8,3.63,3.63,0,0,0-2-1.36c-.37-.1-.71-.32-1.07-.44a5.07,5.07,0,0,0-2.91-.12,10.76,10.76,0,0,0-1.8.56,3.93,3.93,0,0,0-1.11.93,21.11,21.11,0,0,0-1.71,2.07A5.94,5.94,0,0,0,5.32,86c0,.07,0,.18,0,.23-1.13,1.41-1.22,3.21-1.82,4.82a5.38,5.38,0,0,0-.35,2c.05,1.14-.53,2.13-.59,3.22A2.78,2.78,0,0,1,2.1,98c-.11.15,0,.47,0,.7A9.33,9.33,0,0,0,2.17,102a4.09,4.09,0,0,1,0,1.48,2.33,2.33,0,0,0,.23,1.43,13.29,13.29,0,0,1,.32,1.42,5.2,5.2,0,0,0,1.45,2.46s.14.11.19.1c.93-.23.89.55,1,1,.13.65.32,1.34-.33,1.91a1.1,1.1,0,0,1-1.2.19A3.31,3.31,0,0,1,2,110.48a9.56,9.56,0,0,1-.84-1.66c-.36-1.23-1-2.4-.85-3.72A11.16,11.16,0,0,0,0,102.51,9.28,9.28,0,0,1,.09,101c0-.21,0-.43,0-.65S0,100.12,0,100a29.1,29.1,0,0,1,.29-3.24c.08-.43.48-.81.51-1.33,0-.84.12-1.67.23-2.5.14-1,.31-2,.53-3a11.2,11.2,0,0,1,.61-1.54c.15-.37.29-.75.42-1.12S2.86,86.4,3,86s.49-1.06.73-1.59a8.38,8.38,0,0,1,1.89-2.88A2.89,2.89,0,0,0,6.17,81a4.35,4.35,0,0,1,2-1.55,19.77,19.77,0,0,1,2.57-.94,3.41,3.41,0,0,1,2.11.14c.51.19,1,.28,1.56.46a6.17,6.17,0,0,1,1.63.72,24.47,24.47,0,0,1,2.13,2.07,3.36,3.36,0,0,1,.43.71c.14.27.26.55.42.8a4,4,0,0,1,.48,1.16A7.84,7.84,0,0,1,20,87a15.23,15.23,0,0,1,0,2.7,16,16,0,0,1-1.69,4.87c-.42.66-.74,1.38-1.21,2A10.58,10.58,0,0,1,15,98.9a5,5,0,0,0-1.56,1.52c0,.07-.1.16-.16.17-.72.11-1.17.66-1.76,1a5.8,5.8,0,0,0-1.08.64.66.66,0,0,0,0,.65c.67.58,1.39,1.11,2.11,1.62a6.26,6.26,0,0,1,1.47,1c.16.19.69.24,1.06.43a24.26,24.26,0,0,0,3.13,1.24,10.65,10.65,0,0,0,2.05.59A26.06,26.06,0,0,0,22.9,107.92Zm8.25-2.8c.15-.21.28-.42.43-.59a1.41,1.41,0,0,0-.43-2.16,8.12,8.12,0,0,0-1.94-.68,3.91,3.91,0,0,0-2.5.52,1.86,1.86,0,0,0-.89.88,4.77,4.77,0,0,0,0,3.58.8.8,0,0,0,.55.31,4.59,4.59,0,0,0,2.71-.78C29.82,105.85,30.51,105.46,31.15,105.12Z"/><path d="M74.41,81.81c.11,0,.25.12.31.08a3.81,3.81,0,0,1,2-.81c.8,0,1.64-.22,2.34.44.22.21.61.25.9.39a1.41,1.41,0,0,1,.63.41,8.46,8.46,0,0,1,1.61,3.41,2.81,2.81,0,0,1-.08,1.79c-.21.4-.44.48-.73.1-.4-.54-.71-1.15-1.1-1.69s-.78-.74-1-1.19-.59-.52-.94-.7a2.32,2.32,0,0,0-2.64.51,15.28,15.28,0,0,0-2.21,2,18.32,18.32,0,0,0-1.47,2.3,7.16,7.16,0,0,0-.64,1.1c-.38.89-.7,1.8-1.08,2.68-.56,1.36-1.21,2.68-1.7,4.07a7.06,7.06,0,0,0-.34,2.34,11.31,11.31,0,0,0,.25,3.14,4.07,4.07,0,0,0,1.19,2.25c.19.14.26.44.39.66a3,3,0,0,0,.32.41,3.78,3.78,0,0,0,.71.73,4,4,0,0,0,1,.4c.31.09.66.07,1,.19a4.41,4.41,0,0,0,3.13-.37c.57-.2.38-.74.24-1a6.23,6.23,0,0,0-1.12-1.18,19.36,19.36,0,0,1-1.68-1.58,1.43,1.43,0,0,1,0-1.83c.32-.21.39-.6.71-.72s.82-.23,1.23-.35.67-.18,1-.31a11.55,11.55,0,0,1,3.4-.58c1.21-.11,2.41-.29,3.62-.34a22.6,22.6,0,0,1,3.08.12,8.17,8.17,0,0,1,1.65.48c.48.16,1,.37,1.43.52.07,0,.19-.12.36-.23,0,1.54,1.43,1.53,2.31,2,2,1.14,3,2.76,2.31,5.06a5.18,5.18,0,0,1-2.81,3.06,9,9,0,0,1-1.59.39c-.41.11-.79.3-1.19.44a6.63,6.63,0,0,1-5.81-1.64,3.92,3.92,0,0,1-1.25-2.75,7.16,7.16,0,0,1,.36-2.55,8.62,8.62,0,0,1,1-1.53,2.42,2.42,0,0,0,.18-.77c-.48,0-1,0-1.47,0a13.67,13.67,0,0,0-1.8.25c-.92.19-1.85.42-2.76.68a.63.63,0,0,0-.12,1,3.56,3.56,0,0,1,1.41,2.38,2.59,2.59,0,0,1-.93,2.56,6.07,6.07,0,0,1-2.95,1.45,8.47,8.47,0,0,1-2.77-.24,4.48,4.48,0,0,1-1.53-.65,8.6,8.6,0,0,1-3.38-3,18.4,18.4,0,0,1-1.19-2.23,7.62,7.62,0,0,1-.34-2.09,14.8,14.8,0,0,1-.1-2.66,14.92,14.92,0,0,1,.56-2.62c.25-1,.54-1.95.86-2.9a5,5,0,0,1,.52-.88,3,3,0,0,0,.28-.63c.11-.42.14-.85.28-1.25a3.59,3.59,0,0,1,.43-.73c.2-.31.4-.62.57-.94.32-.61.61-1.23.92-1.84a13.71,13.71,0,0,1,.79-1.28c.3-.45.62-.88.93-1.32a2.59,2.59,0,0,1,.8-.74,7.13,7.13,0,0,0,1.48-1.52A1,1,0,0,0,74.41,81.81Zm18.3,23.32c0-.12,0-.25-.11-.33a2.33,2.33,0,0,0-2.25-.88c-.71.14-1.55.49-2.26-.16a3,3,0,0,0-.78-.54c-.22-.1-.65-.18-.72-.08-.6.84-1.68,1.44-1.33,2.8a2.09,2.09,0,0,0,.57,1.32s1.17.65,1.22.65a5.3,5.3,0,0,0,2-.07c.88-.4,2.12,0,2.64-1.21,0,0,.07,0,.1,0C92.43,106.33,92.48,105.68,92.71,105.13Z"/><path d="M99.54,106.88c.38-.34.65-.63,1-.87s.8-.55,1.19-.85a1.5,1.5,0,0,0,.33-.45,5.7,5.7,0,0,1,2.87-2.27,1.35,1.35,0,0,0,.59-.86,3,3,0,0,1,1.91-1.92,6.62,6.62,0,0,1,2.94-.82c1.07,0,2.08.41,3.11.48.77.05,1.23.58,1.88.78.47.14.66.9.5,1.7a3.3,3.3,0,0,1-1.68,2.38,4.72,4.72,0,0,0-1.33,1,7.55,7.55,0,0,1-1.42,1c-.42.27-.86.51-1.32.79l.1,1c.11.06.36.11.38.21a1.33,1.33,0,0,0,.5.71,3,3,0,0,0,3.61.52c.52-.25.92-.73,1.44-1a5.81,5.81,0,0,1,1.35-.34,4.12,4.12,0,0,1,.51,0,1.2,1.2,0,0,1-.21,1.89c-.31.3-.55.67-.86,1a6.07,6.07,0,0,1-2.44,1.36,5.81,5.81,0,0,1-1.33.35,4.94,4.94,0,0,1-3.87-1.43c-.58-.56-1.25-1-1.88-1.54-.13-.1-.36-.26-.34-.34.2-.84-.69-1-1-1.57a8.45,8.45,0,0,0-1-1.59c-.5-.65-.5-.61-1,.11a7.08,7.08,0,0,1-1.06,1c-.52.48-1,1-1.56,1.44a4.06,4.06,0,0,1-1.77,1.19,2.38,2.38,0,0,1-2.42-.69,3.36,3.36,0,0,1-.79-3.11c.14-.94.17-1.88.26-2.82.11-1.11.21-2.22.37-3.32.25-1.74.54-3.47.83-5.2.22-1.33.53-2.65.66-4,.11-1.11,0-2.24,0-3.36a1.16,1.16,0,0,1,0-.32c.14-.37-.07-.5-.38-.56a1.41,1.41,0,0,1-1.17-1.19,3.29,3.29,0,0,1,0-2,1.63,1.63,0,0,1,1.89-.94,3.14,3.14,0,0,1,1.38,1.09,4.52,4.52,0,0,1,.77,3.32c0,.5.11,1,.07,1.52-.09,1.18-.26,2.36-.37,3.54-.07.71,0,1.44-.13,2.15s-.36,1.6-.49,2.41c-.17,1.09-.28,2.2-.43,3.29-.13.91-.34,1.8-.42,2.71-.1,1.14-.14,2.28-.16,3.43A3.53,3.53,0,0,0,99.54,106.88Zm12.93-5c-.8,0-1.56,0-2.3,0s-1.21.41-1.76.73a.62.62,0,0,0-.16.56,6.44,6.44,0,0,0,.33,1.08C109.5,104.24,112.42,102.52,112.47,101.83Z"/><path d="M129.38,106.78l-.18-.29s0-.09,0-.09c.38-.1.8,0,1.15-.32.14-.14.57,0,.85.06a.42.42,0,0,1,.14.73c-.32.31-.63.63-.94.95a4.14,4.14,0,0,1-2.37,1.17,11.66,11.66,0,0,1-2.44.42,13.41,13.41,0,0,1-2.62-.54,3.12,3.12,0,0,1-1.54-1.05,4.63,4.63,0,0,1-1.07-1.45,2.67,2.67,0,0,1,.07-1.93,11.52,11.52,0,0,1,.85-1.68.44.44,0,0,1,.06-.1c.73-.68,1.42-1.4,2.2-2,.6-.46,1.19-.9,1.76-1.4a3.65,3.65,0,0,1,1.27-.79c.71-.21,1.39-.53,2.09-.74a1.07,1.07,0,0,1,1.32.45,1.48,1.48,0,0,1-.39,1.82c-.74.48-1.54.86-2.25,1.37a6.57,6.57,0,0,0-1.95,1.5,7.12,7.12,0,0,1-1.14,1.12,1.38,1.38,0,0,0-.13,1.45,2.23,2.23,0,0,0,1.76.95c.47,0,.94.16,1.41.18.3,0,.6-.11.9-.12a1.63,1.63,0,0,1,.62.12,2.14,2.14,0,0,1,.44.3Z"/><path d="M61.61,93.69c-.1.16-.27.45-.47.72a8.21,8.21,0,0,1-.73.82.5.5,0,0,1-.41.12,3.51,3.51,0,0,1-2.29-1.58,1.14,1.14,0,0,1,.65-1.45,7.15,7.15,0,0,1,1.44-.4A1.71,1.71,0,0,1,61.61,93.69Z"/></g></g></svg>