<?xml version="1.0" encoding="utf-8"?>
<!-- Generator: Adobe Illustrator 25.1.0, SVG Export Plug-In . SVG Version: 6.00 Build 0)  -->
<svg height="70px" version="1.1" id="Layer_1" xmlns="http://www.w3.org/2000/svg" xmlns:xlink="http://www.w3.org/1999/xlink" x="0px" y="0px"
	 viewBox="0 0 216.7 70" style="enable-background:new 0 0 216.7 70;" xml:space="preserve">
<style type="text/css">
	.st0{fill:none;stroke:#000000;stroke-width:1.0831;stroke-linecap:square;stroke-miterlimit:9.8467;}
</style>
<g id="Layer_1-2">
	<path d="M65.4,43c0.7-1.9,0.9-4,0.6-6c-0.4-3.1-0.8-6.3-1.2-9.4c-0.1-0.9-0.3-1.8-0.4-2.7c-0.1-0.6-1.6-0.3-1.6-0.3
		s-1.2,0.3-4.3,0.7c-0.8,0.2-1.7,0.1-2.5-0.2c-0.2-0.1-0.3-0.1-0.5-0.1c-1.3-0.2-2.5-0.3-3.8-0.3H45c-1.9,0-3.8,0-5.6,0H15.3
		c-0.5,0-0.9,0.1-1.4,0.1v5.8c0,0.5-0.4,1-1,1.1c0,0-1.5,0.2-2.1,0.3c-1.1,0.2-3.6,0.5-4.7,0.7l0,0L5.2,33c0,0,0.2,1.1,0.2,1.5
		C5.8,37,6.1,39.6,6.5,42c0.3,1.7,0.6,3.3,0.9,5c0.8,3.2,3.3,5.6,6.5,6.4c0.1,4.9,0,1.1,0,16c5.5,0,16.3-0.1,16.3-0.1l0.1-9.5
		c0,0,0.1-4.3,0-6.5c0-0.8,0.1-0.9,0.9-1.1c0.8-0.2,1.4-0.3,2.2-0.4l8.7-1.3c0,0,1.1-0.1,1,0.2c0.1,1.4,0.2,2.8,0.3,4.2
		c0,0.3,0.1,0.6,0.2,0.9c0.2,0.4,0.4,0.9,0.4,1.4c0.2,2.3,0.3,5.8,0.5,8.2c0.1,1,0.1,2,0.2,3c0.1,0.7,0.1,1.1,0.7,1h16
		c0-0.1,0.1-0.1,0.1-0.2c0-0.1,0-0.2,0-0.3c-0.7-2-1-4.2-1-6.3c0-1.1-0.1-6.1-0.3-7.7c-0.4-2.3-1.7-4.4-3.6-5.9
		c-0.2-0.1-0.3-0.2-0.5-0.4c0.9-0.2,1.8-0.4,2.6-0.5C63.2,47.1,64.7,44.7,65.4,43z M48.9,48.9c-3.9,0.6-7.8,1.1-11.7,1.6l-10,1.4
		l-7.6,1c-1.5,0.2-3,0.3-4.5,0.1c-3.1-0.5-5.7-2.8-6.4-5.8c-0.6-2.1-1-4.3-1.3-6.5C7,39,6.8,37.4,6.5,35.7c-0.1-0.6-0.2-1.6-0.3-2.3
		c2.7-0.4,7.5-1.3,10-1.7c2.2-0.3,4.4-0.5,6.6-0.9c2.8-0.4,5.6-0.8,8.4-1.2c2.8-0.4,5.3-0.7,8-1.1l9.3-1.3l7.1-1l7.3-1
		c0.6-0.1,0.7,0,0.8,0.6c0,0.3,0.1,0.5,0.1,0.8c0.3,2.6,0.7,5.2,1,7.8c0.4,2.1,0.5,4.1,0.3,6.2c-0.2,2.3-1.6,4.3-3.6,5.5
		c-1.3,0.8-2.8,1.3-4.4,1.5L48.9,48.9z"/>
	<path d="M13.6,42.7l46.8-3c0.1,0.3,0.1,0.6,0.1,0.8c0,0.7,0,1.4-0.1,2.2c-0.1,1.7-1.6,3-3.2,3c-2.7,0.2-5.4,0.3-8.2,0.5L36,47
		l-10.6,0.7c-2.4,0.1-4.8,0.3-7.2,0.5c-0.7,0-1.4,0-2-0.2c-1.1-0.1-2-1-2.2-2.2C13.9,44.8,13.8,43.9,13.6,42.7z M14.8,43.7v0.7
		c0.1,0.4,0.1,0.8,0.2,1.1c0.2,1,1.1,1.7,2.2,1.7c0.8,0,1.6,0,2.4-0.1l11.5-0.7l8-0.5l7-0.4l7.3-0.5c1.3-0.1,2.6-0.2,3.9-0.3
		c1,0,1.9-0.6,2.3-1.6c0.2-0.7,0.3-1.5,0.1-2.3C58.6,40.7,16,43.4,14.8,43.7L14.8,43.7z"/>
	<ellipse transform="matrix(0.1414 -0.9899 0.9899 0.1414 -4.72 60.7689)" cx="32.7" cy="33.1" rx="2" ry="2.4"/>
	<ellipse transform="matrix(0.1414 -0.9899 0.9899 0.1414 10.7268 86.0301)" cx="55" cy="36.8" rx="2" ry="2.4"/>
	<path class="st0" d="M45.2,69.5h18.7c4,0,7.2-3.2,7.2-7.2l0,0V7.8c0-4-3.2-7.2-7.2-7.2c0,0,0,0,0,0H9.4c-4,0-7.2,3.2-7.2,7.2
		c0,0,0,0,0,0v54.5c0,4,3.2,7.2,7.2,7.2h20.3"/>
	<path d="M108,63.8c0.5-1.1,0.1-2.1,0-3.1c0-0.3,0-0.7,0-1c0-1.5,0.8-3,2.1-3.8c0.7-0.4,1.6-0.5,2.4-0.5c1.1-0.1,2.1,0,3.2,0.2
		c1,0.2,1.9,0.6,2.6,1.3c1.4,1.2,1.6,3.3,0.4,4.7c-0.1,0.1-0.2,0.2-0.2,0.3c-0.4,0.6-1,1.1-1.5,1.5c-0.5,0.3-1,0.5-1.5,0.6
		c-0.4,0.2-0.8,0.5-1.2,0.7c-0.1,0.1-0.1,0.3-0.1,0.5c0.1,0.1,0.2,0.2,0.4,0.3c0.7,0.1,1.3,0.2,2,0.3c0.4,0.1,0.7,0.1,1.1,0
		c0.7-0.1,1.4-0.3,2.1-0.6c0.5-0.3,1-0.3,1.4-0.8c0.3-0.3,0.7-0.6,1.2-0.9c0.7-0.5,1.1-1.3,1.3-2.1c0.2-0.7,0.5-1.4,0.8-2
		c0.4-0.4,0.9-0.6,1.4-0.5c0.4,0.3,0.7,0.7,0.7,1.2c0,0.7,0,1.4,0,2.2c0,0.6,0.2,1.2,0.6,1.6c0.4,0.5,0.9,0.1,1.3,0.3
		c1.2,0.3,2-0.4,2.8-1c0.8-0.6,1.8-1.6,2.7-2.5c0.3-0.3,0.4-0.8,0.7-1c0.4-0.3,0.8-0.5,1.2-0.7c0.4-0.1,0.9,0.4,0.9,0.9
		c-0.1,1-0.1,2,0.1,3c0.1,0.4,0.3,0.8,0.5,1.2c0.4,0.7,1.1,0.5,1.6,0.5c0.4,0,0.9,0,1.1-0.5c0.1-0.2,0.5-0.2,0.7-0.3
		c0.4-0.2,0.9-0.5,1.3-0.8c0.4-0.2,0.7-0.4,1.1-0.6c0.4-0.2,0.7-0.6,1.1-0.7c0.8-0.4,1.6-1.2,2.6-1c0.6,0.2,1,0.6,1.2,1.2
		c0,0.8-0.2,1.5-0.7,2.2c-0.1,0.1-0.2,0.1-0.3,0.1c-0.1,0-0.2-0.1-0.3-0.1c-0.5-0.2-0.7-1-1.4-0.6c-0.5,0.2-1,0.5-1.5,0.8
		c-0.5,0.3-1,0.7-1.6,1c-0.6,0.2-1.1,0.5-1.6,0.9c-0.3,0.3-0.8,0.5-1.3,0.6c-0.6,0.1-1.2,0.6-2,0.3c-0.6-0.3-1.3-0.7-1.8-1.1
		c-0.4-0.4-0.8-0.8-1.1-1.3c-0.2-0.3-0.3-0.7-0.3-1.1c0-0.1-0.1-0.1-0.1-0.2c-0.4,0.2-0.8,0.2-1,0.9c-0.1,0.3-0.6,0.5-0.8,0.7
		c-0.7,0.7-1.6,1.2-2.5,1.6c-1,0.4-2,0.5-3.1,0.3c-0.1,0-0.2-0.2-0.3-0.3c-0.2,0-0.5-0.1-0.7-0.2c-0.5-0.4-1.2-0.6-1.5-1.2
		c-0.2-0.1-0.4-0.1-0.5,0c-0.6,0.4-1.1,0.9-1.7,1.3c-0.6,0.5-1.3,0.9-2.1,1c-0.5,0.1-1,0.3-1.4,0.5c-0.7,0.3-1.6,0.3-2.3,0.1
		c-0.4-0.1-0.9-0.1-1.4-0.3c-0.5-0.1-0.9-0.2-1.4-0.4c-0.9-0.4-1.8-0.9-2.6-1.4c-0.5-0.3-1.1-0.4-1.6-0.3c-0.8,0-1.5,0.4-2.4,0
		c-0.7-0.2-1.5-0.2-2.2-0.2c-0.3,0-0.7-0.1-1-0.2c-0.7-0.2-1.4-0.4-2.1-0.7c-0.7-0.3-1.2-0.6-1.8-0.9l-3.2-1.5
		c-0.1-0.1-0.3-0.2-0.4-0.3l-2.6-1.6c-1-0.6-1.9-1.1-2.8-1.7c-0.4-0.4-0.6-0.9-0.4-1.5c0.3-0.5,0.9-0.7,1.4-0.6c0.2,0,0.3,0,0.5,0
		c0.6-0.1,1.3-0.1,1.9-0.3c0.3-0.1,0.6-0.2,0.9-0.4c0.4-0.1,0.8-0.2,1.2-0.4c0.7-0.4,1.4-1,2.1-1.5c0.1-0.1,0.3-0.1,0.5-0.1
		c0.3-0.8,0.8-1.4,1.5-1.9c0.2-0.1,0.2-0.4,0.4-0.6c0.1-0.2,0.6-0.6,0.8-0.9c0.3-0.3,0.2-0.5,0.3-0.7c0.4-0.8,0.8-1.7,1.1-2.5
		c0.5-1.2,0.7-2.6,0.5-3.9c-0.1-0.5,0-0.9-0.1-1.4c-0.1-0.5-0.3-0.9-0.5-1.3c-0.3-0.6-0.6-1.2-1-1.8c-0.5-0.7-1.2-1.1-2-1.3
		c-0.4-0.1-0.7-0.3-1-0.4c-0.9-0.3-1.9-0.4-2.9-0.1c-0.6,0.1-1.2,0.3-1.8,0.6c-0.4,0.2-0.8,0.5-1.1,0.9c-0.6,0.6-1.2,1.3-1.7,2
		c-0.2,0.4-0.4,0.9-0.5,1.3c0,0.1,0,0.2,0,0.2c-1.1,1.4-1.2,3.2-1.8,4.7c-0.2,0.6-0.4,1.3-0.3,2c0,1.1-0.5,2.1-0.6,3.2
		c0,0.6-0.1,1.2-0.4,1.7c-0.1,0.1,0,0.5,0,0.7c-0.2,1.1-0.1,2.2,0.1,3.2c0.1,0.5,0.1,1,0,1.5c-0.1,0.5,0,1,0.2,1.4
		c0.1,0.5,0.2,0.9,0.3,1.4c0.2,0.9,0.7,1.8,1.4,2.4c0,0.1,0.1,0.1,0.2,0.1c0.9-0.2,0.9,0.5,1,1c0.1,0.4,0.3,1.3-0.3,1.9
		c-0.3,0.3-0.8,0.4-1.2,0.2c-0.8-0.3-1.4-0.8-1.8-1.5c-0.3-0.5-0.6-1.1-0.8-1.6c-0.4-1.2-1-2.4-0.8-3.7c0-0.9-0.1-1.7-0.2-2.5
		c0-0.5,0-1,0.1-1.5c0-0.2,0-0.4,0-0.6c0-0.1-0.1-0.3-0.1-0.4c0-1.1,0.1-2.1,0.3-3.2c0.1-0.4,0.5-0.8,0.5-1.3c0-0.8,0.1-1.6,0.2-2.5
		c0.1-1,0.3-2,0.5-3c0.2-0.5,0.4-1,0.6-1.5c0.1-0.4,0.3-0.7,0.4-1.1c0.1-0.4,0.3-0.8,0.4-1.3s0.5-1,0.7-1.6c0.4-1.1,1-2,1.9-2.8
		c0.2-0.2,0.4-0.3,0.5-0.5c0.5-0.7,1.2-1.2,2-1.5c0.8-0.4,1.7-0.7,2.5-0.9c0.7-0.2,1.4-0.1,2.1,0.1c0.5,0.2,1,0.3,1.5,0.5
		c0.6,0.1,1.1,0.4,1.6,0.7c0.7,0.6,1.4,1.3,2.1,2c0.2,0.2,0.3,0.5,0.4,0.7c0.1,0.3,0.3,0.5,0.4,0.8c0.2,0.4,0.4,0.7,0.5,1.1
		c0.3,0.8,0.4,1.6,0.5,2.4c0.1,0.9,0.1,1.8,0,2.7c-0.3,1.7-0.9,3.3-1.7,4.8c-0.4,0.6-0.7,1.4-1.2,2c-0.6,0.9-1.3,1.6-2,2.3
		c-0.6,0.4-1.1,0.9-1.5,1.5c0,0.1-0.1,0.2-0.2,0.2c-0.7,0.1-1.2,0.6-1.7,1c-0.4,0.2-0.7,0.4-1.1,0.6c-0.1,0.2-0.1,0.4,0,0.6
		c0.7,0.6,1.4,1.1,2.1,1.6c0.5,0.3,1,0.6,1.4,1c0.2,0.2,0.7,0.2,1,0.4c1,0.5,2,0.9,3.1,1.2c0.7,0.3,1.3,0.5,2,0.6
		C106.3,63.7,107.1,63.8,108,63.8z M116.1,61c0.1-0.2,0.3-0.4,0.4-0.6c0.5-0.6,0.4-1.5-0.2-1.9c-0.1-0.1-0.2-0.1-0.3-0.2
		c-0.6-0.3-1.3-0.5-2-0.7c-0.9-0.1-1.7,0.1-2.5,0.5c-0.4,0.2-0.7,0.5-0.9,0.9c-0.5,1.1-0.5,2.4,0,3.5c0.1,0.1,0.3,0.3,0.5,0.3
		c0.9,0,1.9-0.2,2.7-0.8C114.8,61.8,115.5,61.4,116.1,61z"/>
	<path d="M158.7,38.1c0.1,0,0.2,0.1,0.3,0.1c0.6-0.5,1.2-0.7,2-0.8c0.8,0,1.6-0.2,2.3,0.4c0.2,0.2,0.6,0.2,0.9,0.4
		c0.2,0.1,0.5,0.2,0.6,0.4c0.8,1,1.3,2.1,1.6,3.4c0.2,0.6,0.1,1.2-0.1,1.8c-0.2,0.4-0.4,0.5-0.7,0.1c-0.3-0.4-0.7-1.1-1.1-1.7
		c-0.4-0.5-0.8-0.7-1-1.2c-0.2-0.4-0.6-0.5-0.9-0.7c-0.9-0.4-1.9-0.2-2.6,0.5c-0.8,0.6-1.5,1.3-2.2,2c-0.5,0.7-1,1.5-1.4,2.3
		c-0.2,0.3-0.5,0.7-0.6,1.1c-0.4,0.9-0.7,1.8-1.1,2.6c-0.6,1.3-1.2,2.6-1.7,4c-0.2,0.7-0.4,1.5-0.3,2.3c-0.1,1,0,2.1,0.2,3.1
		c0.1,0.8,0.6,1.6,1.2,2.2c0.2,0.1,0.3,0.4,0.4,0.6c0.1,0.1,0.2,0.3,0.3,0.4c0.2,0.3,0.4,0.5,0.7,0.7c0.3,0.2,0.6,0.3,1,0.4
		c0.3,0.1,0.6,0.1,1,0.2c1,0.3,2.1,0.1,3.1-0.4c0.6-0.2,0.4-0.7,0.2-1c-0.3-0.4-0.7-0.8-1.1-1.2c-0.6-0.5-1.1-1-1.7-1.6
		c-0.4-0.5-0.4-1.3,0-1.8c0.3-0.2,0.4-0.6,0.7-0.7c0.3-0.1,0.8-0.2,1.2-0.3c0.4-0.1,0.7-0.2,1-0.3c1.1-0.4,2.2-0.6,3.3-0.6
		c1.2-0.1,2.4-0.3,3.6-0.3c1,0,2,0,3,0.1c0.6,0.1,1.1,0.3,1.6,0.5c0.5,0.2,0.9,0.4,1.4,0.5c0.1,0,0.2-0.1,0.4-0.2
		c0,1.5,1.4,1.5,2.3,2c2,1.1,3,2.7,2.3,5c-0.5,1.3-1.5,2.4-2.8,3c-0.5,0.2-1,0.3-1.6,0.4c-0.4,0.1-0.8,0.3-1.2,0.4
		c-1,0.3-2.1,0.2-3.1-0.1c-1-0.3-1.9-0.8-2.6-1.5c-0.7-0.7-1.1-1.7-1.2-2.7c0-0.9,0.1-1.7,0.4-2.5c0.3-0.5,0.6-1,1-1.5
		c0.1-0.2,0.2-0.5,0.2-0.8c-0.5,0-1,0-1.4,0c-0.6,0-1.2,0.1-1.8,0.2c-0.9,0.2-1.8,0.4-2.7,0.7c-0.2,0.1-0.3,0.3-0.3,0.5
		c0,0.2,0.1,0.4,0.2,0.5c0.8,0.6,1.3,1.4,1.4,2.3c0.2,0.9-0.2,1.9-0.9,2.5c-0.8,0.7-1.8,1.2-2.9,1.4c-0.9,0.1-1.8,0-2.7-0.2
		c-0.5-0.1-1-0.3-1.5-0.6c-1.4-0.7-2.5-1.7-3.3-3c-0.4-0.7-0.8-1.4-1.2-2.2c-0.2-0.7-0.3-1.4-0.3-2.1c-0.1-0.9-0.1-1.7-0.1-2.6
		c0.1-0.9,0.3-1.7,0.6-2.6c0.2-1,0.5-1.9,0.8-2.9c0.1-0.3,0.3-0.6,0.5-0.9c0.1-0.2,0.2-0.4,0.3-0.6c0.1-0.4,0.1-0.8,0.3-1.2
		c0.1-0.3,0.3-0.5,0.4-0.7c0.2-0.3,0.4-0.6,0.6-0.9c0.3-0.6,0.6-1.2,0.9-1.8c0.2-0.4,0.5-0.9,0.8-1.3c0.3-0.4,0.6-0.9,0.9-1.3
		c0.2-0.3,0.5-0.5,0.8-0.7c0.6-0.4,1.1-0.9,1.5-1.5C158.7,38.3,158.7,38.2,158.7,38.1z M176.8,61c0-0.1,0-0.2-0.1-0.3
		c-0.5-0.7-1.4-1-2.2-0.9c-0.7,0.1-1.5,0.5-2.2-0.1c-0.2-0.2-0.5-0.4-0.8-0.5c-0.2-0.1-0.6-0.2-0.7-0.1c-0.6,0.8-1.7,1.4-1.3,2.8
		c0.1,0.5,0.1,1,0.6,1.3c0,0,1.2,0.6,1.2,0.6c0.7,0.1,1.3,0.1,2-0.1c0.9-0.4,2.1-0.1,2.6-1.2c0,0,0.1,0,0.1,0
		C176.5,62.2,176.5,61.6,176.8,61z"/>
	<path d="M183.5,62.8c0.4-0.3,0.6-0.6,1-0.9s0.8-0.6,1.2-0.8c0.1-0.1,0.3-0.3,0.3-0.4c0.7-1,1.6-1.8,2.8-2.2
		c0.3-0.2,0.5-0.5,0.6-0.8c0.3-0.9,1-1.6,1.9-1.9c0.9-0.5,1.9-0.8,2.9-0.8c1.1,0,2,0.4,3.1,0.5c0.8,0,1.2,0.6,1.9,0.8
		c0.5,0.1,0.6,0.9,0.5,1.7c-0.2,1-0.8,1.8-1.6,2.3c-0.5,0.3-0.9,0.6-1.3,1c-0.4,0.4-0.9,0.7-1.4,1c-0.4,0.3-0.8,0.5-1.3,0.8l0.1,1
		c0.1,0.1,0.4,0.1,0.4,0.2c0.1,0.3,0.3,0.5,0.5,0.7c0.9,1,2.4,1.2,3.6,0.5c0.5-0.2,0.9-0.7,1.4-1c0.4-0.2,0.9-0.3,1.3-0.3
		c0.2,0,0.3,0,0.5,0c0.5,0.5,0.5,1.2,0,1.7c-0.1,0.1-0.1,0.1-0.2,0.2c-0.3,0.3-0.6,0.6-0.8,1c-0.7,0.6-1.5,1.1-2.4,1.3
		c-0.4,0.2-0.9,0.3-1.3,0.3c-1.4,0.1-2.8-0.4-3.8-1.4c-0.6-0.6-1.2-1-1.9-1.5c-0.1-0.1-0.4-0.3-0.3-0.3c0.2-0.8-0.7-1-1-1.5
		c-0.3-0.6-0.6-1.1-1-1.6c-0.5-0.6-0.5-0.6-1,0.1c-0.3,0.4-0.7,0.7-1,1c-0.5,0.5-1,1-1.5,1.4c-0.5,0.5-1.1,1-1.7,1.2
		c-0.9,0.2-1.8,0-2.4-0.7c-0.7-0.8-1-2-0.7-3.1c0.1-0.9,0.2-1.8,0.3-2.8c0.1-1.1,0.2-2.2,0.4-3.3c0.2-1.7,0.5-3.4,0.8-5.1
		c0.2-1.3,0.5-2.6,0.6-3.9c0.1-1.1,0-2.2,0-3.3c0-0.1,0-0.2,0-0.3c0.1-0.4-0.1-0.5-0.4-0.6c-0.6-0.1-1.1-0.6-1.2-1.2
		c-0.2-0.6-0.2-1.3,0-2c0.3-0.7,1.1-1.1,1.9-0.9c0.5,0.2,1,0.6,1.4,1.1c0.7,0.9,0.9,2.1,0.7,3.3c0,0.5,0.1,1,0.1,1.5
		c-0.1,1.2-0.3,2.3-0.4,3.5c-0.1,0.7,0,1.4-0.1,2.1c-0.1,0.7-0.3,1.6-0.5,2.4c-0.2,1.1-0.3,2.2-0.4,3.2c-0.1,0.9-0.3,1.8-0.4,2.7
		c-0.1,1.1-0.1,2.2-0.2,3.4C183.2,62.1,183.3,62.5,183.5,62.8z M196.2,57.8c-0.8,0-1.5,0.1-2.3,0c-0.7-0.1-1.2,0.4-1.7,0.7
		c-0.1,0.1-0.2,0.4-0.2,0.6c0.1,0.3,0.2,0.7,0.3,1C193.3,60.2,196.2,58.5,196.2,57.8z"/>
	<path d="M212.9,62.7l-0.2-0.3c0,0,0-0.1,0-0.1c0.4-0.1,0.8,0,1.1-0.3c0.1-0.1,0.6,0,0.8,0.1c0.2,0.1,0.3,0.3,0.3,0.5
		c0,0.1-0.1,0.2-0.1,0.2c-0.3,0.3-0.6,0.6-0.9,0.9c-0.6,0.6-1.5,1-2.3,1.1c-0.8,0.2-1.6,0.4-2.4,0.4c-0.9-0.1-1.7-0.3-2.6-0.5
		c-0.6-0.2-1.1-0.5-1.5-1c-0.4-0.4-0.8-0.9-1-1.4c-0.2-0.6-0.2-1.3,0.1-1.9c0.2-0.6,0.5-1.1,0.8-1.7l0.1-0.1c0.7-0.7,1.4-1.4,2.2-2
		c0.6-0.5,1.2-0.9,1.7-1.4c0.4-0.3,0.8-0.6,1.3-0.8c0.7-0.2,1.4-0.5,2.1-0.7c0.5-0.2,1,0,1.3,0.4c0.3,0.6,0.2,1.4-0.4,1.8
		c-0.7,0.5-1.5,0.8-2.2,1.3c-0.7,0.4-1.4,0.9-1.9,1.5c-0.3,0.4-0.7,0.8-1.1,1.1c-0.3,0.4-0.4,1-0.1,1.4c0.4,0.6,1,1,1.7,1
		c0.5,0,0.9,0.2,1.4,0.2c0.3,0,0.6-0.1,0.9-0.1c0.2,0,0.4,0,0.6,0.1c0.2,0.1,0.3,0.2,0.4,0.3L212.9,62.7z"/>
	<path d="M146.1,49.8c-0.1,0.1-0.3,0.4-0.5,0.7c-0.2,0.3-0.5,0.6-0.7,0.8c-0.1,0.1-0.2,0.1-0.4,0.1c-0.9-0.2-1.7-0.8-2.3-1.6
		c-0.2-0.6,0.1-1.2,0.6-1.4c0.5-0.2,0.9-0.3,1.4-0.4c0.9-0.1,1.7,0.6,1.8,1.6C146.1,49.7,146.1,49.7,146.1,49.8z"/>
</g>
</svg>
