<svg height="35px" xmlns="http://www.w3.org/2000/svg" viewBox="0 0 131.54 34.3"><g id="Layer_2" data-name="Layer 2"><g id="Layer_1-2" data-name="Layer 1"><path d="M22.9,29.54c.54-1.11.14-2.11,0-3.12a4.09,4.09,0,0,1,0-1A4.61,4.61,0,0,1,25,21.55,5.55,5.55,0,0,1,27.4,21a12,12,0,0,1,3.22.23,5.26,5.26,0,0,1,2.63,1.27,3.8,3.8,0,0,1,1.13,3.36,3.87,3.87,0,0,1-1,1.67,9,9,0,0,1-1.56,1.52,9.21,9.21,0,0,1-1.5.66,9,9,0,0,0-1.27.75.53.53,0,0,0-.06.48.65.65,0,0,0,.41.26c.68.13,1.36.26,2.05.34a3.55,3.55,0,0,0,1.08,0,6.78,6.78,0,0,0,2.1-.57c.46-.27,1-.32,1.42-.8a4.35,4.35,0,0,1,1.18-.87,3.46,3.46,0,0,0,1.29-2.12,21.54,21.54,0,0,1,.82-2.06,1.67,1.67,0,0,1,1.47-.55,1.38,1.38,0,0,1,.68,1.26c0,.74,0,1.47,0,2.21a2.5,2.5,0,0,0,.65,1.65c.41.52.91.16,1.35.29,1.17.34,2.06-.37,2.88-1.06s1.84-1.64,2.72-2.51c.29-.29.41-.77.71-1a3.25,3.25,0,0,1,1.24-.67c.44-.13.9.42.92.92a9.56,9.56,0,0,0,.15,3,10.63,10.63,0,0,0,.45,1.23c.37.72,1.08.51,1.67.46.4,0,.87.05,1.15-.46.09-.17.5-.16.73-.28.45-.25.88-.54,1.32-.79a9.26,9.26,0,0,1,1.16-.62c.42-.17.72-.56,1.07-.72.86-.39,1.58-1.22,2.68-1a1.78,1.78,0,0,1,1.25,1.36,4.25,4.25,0,0,1-.7,2.22.38.38,0,0,1-.3.13.8.8,0,0,1-.32-.13c-.46-.23-.7-1-1.41-.63-.5.25-1,.52-1.49.82s-1.06.73-1.61,1.06a8.56,8.56,0,0,0-1.63.91,2.25,2.25,0,0,1-1.34.66c-.65.09-1.25.66-2,.29A10.34,10.34,0,0,1,51,31.93a5.6,5.6,0,0,1-1.11-1.35,4.43,4.43,0,0,1-.34-1.12,1.1,1.1,0,0,0-.13-.17c-.37.24-.85.25-1,.87-.06.29-.58.46-.84.73a7.11,7.11,0,0,1-2.56,1.59,5.78,5.78,0,0,1-3.13.32c-.11,0-.19-.18-.28-.26a2.46,2.46,0,0,1-.72-.18c-.55-.35-1.2-.57-1.55-1.21,0-.1-.42-.14-.55-.06-.59.4-1.13.89-1.72,1.28A4.77,4.77,0,0,1,35,33.43a6.62,6.62,0,0,0-1.44.49,3.57,3.57,0,0,1-2.35.12c-.45-.14-.93-.15-1.39-.25a6.86,6.86,0,0,1-1.38-.39A17.64,17.64,0,0,1,25.71,32a2.46,2.46,0,0,0-1.67-.3c-.79,0-1.56.45-2.43,0a6.93,6.93,0,0,0-2.26-.18,4,4,0,0,1-1-.21c-.72-.22-1.44-.43-2.14-.71s-1.23-.58-1.85-.88l-3.2-1.5c-.16-.08-.31-.19-.46-.28L8.11,26.33c-1-.57-1.93-1.11-2.88-1.7a1.48,1.48,0,0,1-.41-1.5,1.24,1.24,0,0,1,1.46-.57,1.48,1.48,0,0,0,.47,0c.65-.08,1.3-.14,1.94-.27a5.66,5.66,0,0,0,.91-.41,5.89,5.89,0,0,0,1.21-.38c.74-.44,1.41-1,2.13-1.48a1.48,1.48,0,0,1,.46-.14A4.12,4.12,0,0,1,15,18c.18-.08.21-.42.36-.6.26-.33.56-.63.84-.95s.16-.46.28-.69a21.47,21.47,0,0,0,1.08-2.57,8,8,0,0,0,.5-4c-.08-.45,0-.94-.06-1.38a6,6,0,0,0-.55-1.36,11.4,11.4,0,0,0-1-1.8,3.63,3.63,0,0,0-2-1.36c-.37-.11-.71-.32-1.07-.45a5.07,5.07,0,0,0-2.91-.11,9.18,9.18,0,0,0-1.8.56,3.93,3.93,0,0,0-1.11.93A20,20,0,0,0,5.82,6.25a6,6,0,0,0-.5,1.37c0,.08,0,.19,0,.24-1.13,1.41-1.22,3.21-1.82,4.82a5.38,5.38,0,0,0-.35,2c.05,1.14-.53,2.13-.59,3.22A2.8,2.8,0,0,1,2.1,19.6c-.11.15,0,.47,0,.7a9.33,9.33,0,0,0,.07,3.29,4,4,0,0,1,0,1.47A2.36,2.36,0,0,0,2.4,26.5a13.11,13.11,0,0,1,.32,1.41,5.18,5.18,0,0,0,1.45,2.47c0,.05.14.11.19.09.93-.22.89.55,1,1.05.13.65.32,1.34-.33,1.91a1.1,1.1,0,0,1-1.2.19A3.31,3.31,0,0,1,2,32.1a9.31,9.31,0,0,1-.84-1.67c-.36-1.22-1-2.4-.85-3.72A11.13,11.13,0,0,0,0,24.13a9.23,9.23,0,0,1,.07-1.48c0-.22,0-.43,0-.65S0,21.73,0,21.6a28.92,28.92,0,0,1,.29-3.23c.08-.43.48-.81.51-1.34,0-.83.12-1.66.23-2.49.14-1,.31-2,.53-3A10.72,10.72,0,0,1,2.17,10c.15-.38.29-.75.42-1.13S2.86,8,3,7.61s.49-1.06.73-1.6A8.25,8.25,0,0,1,5.66,3.14a2.89,2.89,0,0,0,.51-.54,4.22,4.22,0,0,1,2-1.55A21.4,21.4,0,0,1,10.71.1a3.49,3.49,0,0,1,2.11.15c.51.19,1,.28,1.56.46A5.58,5.58,0,0,1,16,1.43a23,23,0,0,1,2.13,2.06,3.43,3.43,0,0,1,.43.72c.14.26.26.55.42.8a3.84,3.84,0,0,1,.48,1.16A7.78,7.78,0,0,1,20,8.61a15.23,15.23,0,0,1,0,2.7,16.08,16.08,0,0,1-1.69,4.88c-.42.65-.74,1.38-1.21,2A10.41,10.41,0,0,1,15,20.52,4.93,4.93,0,0,0,13.42,22c0,.07-.1.16-.16.17-.72.1-1.17.66-1.76,1a6.45,6.45,0,0,0-1.08.65.66.66,0,0,0,0,.65c.67.57,1.39,1.11,2.11,1.62a6.52,6.52,0,0,1,1.47,1c.16.2.69.25,1.06.44a25.79,25.79,0,0,0,3.13,1.24,10.65,10.65,0,0,0,2.05.59A26.06,26.06,0,0,0,22.9,29.54Zm8.25-2.8a6,6,0,0,1,.43-.59A1.41,1.41,0,0,0,31.15,24a8.61,8.61,0,0,0-1.94-.69,4,4,0,0,0-2.5.52,1.92,1.92,0,0,0-.89.89,4.77,4.77,0,0,0,0,3.58c.06.15.35.27.55.3a4.58,4.58,0,0,0,2.71-.77C29.82,27.47,30.51,27.08,31.15,26.74Z"/><path d="M74.41,3.43c.11,0,.25.12.31.08a3.82,3.82,0,0,1,2-.82c.8,0,1.64-.21,2.34.45.22.21.61.24.9.39a1.49,1.49,0,0,1,.63.4,8.5,8.5,0,0,1,1.61,3.42,2.81,2.81,0,0,1-.08,1.79c-.21.4-.44.48-.73.09-.4-.54-.71-1.14-1.1-1.68s-.78-.74-1-1.19-.59-.52-.94-.7a2.32,2.32,0,0,0-2.64.51,14.73,14.73,0,0,0-2.21,2,17.62,17.62,0,0,0-1.47,2.3,7.16,7.16,0,0,0-.64,1.1c-.38.88-.7,1.79-1.08,2.68-.56,1.36-1.21,2.68-1.7,4.06a7.16,7.16,0,0,0-.34,2.35,11.24,11.24,0,0,0,.25,3.13,4.09,4.09,0,0,0,1.19,2.26c.19.14.26.44.39.65a2.59,2.59,0,0,0,.32.42,3.46,3.46,0,0,0,.71.72,4,4,0,0,0,1,.41c.31.09.66.07,1,.18a4.36,4.36,0,0,0,3.13-.37c.57-.19.38-.74.24-1A6.18,6.18,0,0,0,75.41,26a19.36,19.36,0,0,1-1.68-1.58,1.43,1.43,0,0,1,0-1.83c.32-.21.39-.61.71-.73s.82-.23,1.23-.34.67-.18,1-.31a11.9,11.9,0,0,1,3.4-.59c1.21-.1,2.41-.28,3.62-.33a22.6,22.6,0,0,1,3.08.12,8.14,8.14,0,0,1,1.65.47c.48.16,1,.37,1.43.53.07,0,.19-.12.36-.23,0,1.53,1.43,1.53,2.31,2,2,1.15,3,2.77,2.31,5.07a5.16,5.16,0,0,1-2.81,3.05,8.23,8.23,0,0,1-1.59.4c-.41.11-.79.3-1.19.44a6.6,6.6,0,0,1-5.81-1.65,3.88,3.88,0,0,1-1.25-2.74,7.13,7.13,0,0,1,.36-2.55,8,8,0,0,1,1-1.53,2.56,2.56,0,0,0,.18-.77c-.48,0-1,0-1.47,0a15.56,15.56,0,0,0-1.8.24c-.92.2-1.85.43-2.76.69a.66.66,0,0,0-.33.49.67.67,0,0,0,.21.54,3.56,3.56,0,0,1,1.41,2.38,2.6,2.6,0,0,1-.93,2.56,6.16,6.16,0,0,1-2.95,1.45A8.47,8.47,0,0,1,72.41,31a4.68,4.68,0,0,1-1.53-.65,8.68,8.68,0,0,1-3.38-3,19.18,19.18,0,0,1-1.19-2.23A7.68,7.68,0,0,1,66,23a14.8,14.8,0,0,1-.1-2.66,15,15,0,0,1,.56-2.63c.25-1,.54-1.94.86-2.9a5.26,5.26,0,0,1,.52-.87,2.82,2.82,0,0,0,.28-.64c.11-.41.14-.84.28-1.25a4.22,4.22,0,0,1,.43-.73c.2-.31.4-.61.57-.93.32-.61.61-1.23.92-1.85.23-.44.52-.86.79-1.28S71.7,6.42,72,6a2.48,2.48,0,0,1,.8-.74,7.38,7.38,0,0,0,1.48-1.52A1,1,0,0,0,74.41,3.43Zm18.3,23.31a1.17,1.17,0,0,0-.11-.33,2.35,2.35,0,0,0-2.25-.87c-.71.14-1.55.49-2.26-.16a3.06,3.06,0,0,0-.78-.55c-.22-.09-.65-.18-.72-.08-.6.85-1.68,1.45-1.33,2.8.12.5.14,1,.57,1.33,0,0,1.17.65,1.22.65a5.3,5.3,0,0,0,2-.07c.88-.4,2.12-.06,2.64-1.21,0,0,.07,0,.1,0C92.43,28,92.48,27.3,92.71,26.74Z"/><path d="M99.54,28.5c.38-.35.65-.63,1-.87s.8-.56,1.19-.86a1.38,1.38,0,0,0,.33-.45,5.73,5.73,0,0,1,2.87-2.26,1.38,1.38,0,0,0,.59-.86,3,3,0,0,1,1.91-1.93,6.61,6.61,0,0,1,2.94-.81c1.07,0,2.08.41,3.11.47.77.05,1.23.58,1.88.78.47.15.66.91.5,1.71a3.28,3.28,0,0,1-1.68,2.37,5.1,5.1,0,0,0-1.33,1.05,8.09,8.09,0,0,1-1.42,1c-.42.27-.86.51-1.32.78l.1,1c.11.06.36.12.38.22a1.31,1.31,0,0,0,.5.7,3,3,0,0,0,3.61.53c.52-.25.92-.74,1.44-1a5.35,5.35,0,0,1,1.35-.34,4.12,4.12,0,0,1,.51,0,1.2,1.2,0,0,1-.21,1.89c-.31.3-.55.66-.86,1a6.07,6.07,0,0,1-2.44,1.36,5.81,5.81,0,0,1-1.33.35,4.94,4.94,0,0,1-3.87-1.43c-.58-.56-1.25-1-1.88-1.54-.13-.11-.36-.26-.34-.34.2-.85-.69-1-1-1.57a8.52,8.52,0,0,0-1-1.6c-.5-.65-.5-.6-1,.12a7.65,7.65,0,0,1-1.06,1c-.52.48-1,1-1.56,1.44a4,4,0,0,1-1.77,1.18,2.38,2.38,0,0,1-2.42-.69,3.34,3.34,0,0,1-.79-3.11c.14-.93.17-1.87.26-2.81.11-1.11.21-2.22.37-3.33.25-1.73.54-3.46.83-5.19.22-1.33.53-2.65.66-4,.11-1.11,0-2.23,0-3.35a1.17,1.17,0,0,1,0-.32c.14-.38-.07-.51-.38-.56A1.42,1.42,0,0,1,97.06,7a3.32,3.32,0,0,1,0-2A1.64,1.64,0,0,1,98.92,4a3.24,3.24,0,0,1,1.38,1.1,4.5,4.5,0,0,1,.77,3.31c0,.5.11,1,.07,1.53-.09,1.18-.26,2.36-.37,3.54-.07.71,0,1.44-.13,2.15s-.36,1.6-.49,2.41c-.17,1.09-.28,2.19-.43,3.29-.13.9-.34,1.8-.42,2.71-.1,1.14-.14,2.28-.16,3.42A3.46,3.46,0,0,0,99.54,28.5Zm12.93-5.06c-.8,0-1.56.06-2.3,0s-1.21.41-1.76.72a.65.65,0,0,0-.16.57,6.74,6.74,0,0,0,.33,1.08C109.5,25.86,112.42,24.14,112.47,23.44Z"/><path d="M129.38,28.4l-.18-.3c0-.05,0-.08,0-.08.38-.1.8,0,1.15-.33.14-.13.57,0,.85.07a.42.42,0,0,1,.14.73c-.32.31-.63.63-.94,1a4.21,4.21,0,0,1-2.37,1.17,13.13,13.13,0,0,1-2.44.42,15.06,15.06,0,0,1-2.62-.54,3.19,3.19,0,0,1-1.54-1A4.67,4.67,0,0,1,120.4,28a2.67,2.67,0,0,1,.07-1.93,10.93,10.93,0,0,1,.85-1.67.44.44,0,0,1,.06-.1c.73-.68,1.42-1.4,2.2-2,.6-.46,1.19-.9,1.76-1.4a3.51,3.51,0,0,1,1.27-.79c.71-.21,1.39-.53,2.09-.74a1.07,1.07,0,0,1,1.32.45,1.48,1.48,0,0,1-.39,1.82c-.74.47-1.54.86-2.25,1.37a6.57,6.57,0,0,0-1.95,1.5,7.06,7.06,0,0,1-1.14,1.11,1.4,1.4,0,0,0-.13,1.46,2.19,2.19,0,0,0,1.76.94c.47,0,.94.16,1.41.19.3,0,.6-.11.9-.12a1.46,1.46,0,0,1,.62.12,2.14,2.14,0,0,1,.44.3Z"/><path d="M61.61,15.31c-.1.16-.27.45-.47.72a9.49,9.49,0,0,1-.73.82A.5.5,0,0,1,60,17a3.55,3.55,0,0,1-2.29-1.58,1.14,1.14,0,0,1,.65-1.45,6.55,6.55,0,0,1,1.44-.4A1.7,1.7,0,0,1,61.61,15.31Z"/></g></g></svg>