<svg xmlns="http://www.w3.org/2000/svg" xmlns:xlink="http://www.w3.org/1999/xlink" viewBox="0 0 799.46 508.88"><defs><style>.cls-1{fill:none;}.cls-2{fill:#d3e8ef;}.cls-3{fill:#3daae0;}.cls-4{fill:#0a5ea0;}.cls-5{fill:#fff;}.cls-6{fill:#31b8eb;}.cls-7{fill:#f6f5f2;}.cls-8{fill:#eedccd;}.cls-9{fill:#a28c7c;}.cls-10{fill:#685a4c;}.cls-11{fill:#545351;}.cls-12{fill:#c5ae9c;}.cls-13{fill:#baa593;}.cls-14{fill:#4a4640;}.cls-15{fill:#8b776a;}.cls-16{fill:#9d8674;}.cls-17{clip-path:url(#clip-path);}.cls-18{fill:#273375;}.cls-19{fill:#fffbfc;}.cls-20{fill:#d0202e;}.cls-21{clip-path:url(#clip-path-2);}.cls-22{fill:#e2b459;}</style><clipPath id="clip-path"><path class="cls-1" d="M457.61,202s-15.62-3.35-20.36,1.95-11.43,8.92-18.68,8.09c0,0,9.76,7,21.75,5s17.29,0,17.29,0Z"/></clipPath><clipPath id="clip-path-2"><path class="cls-1" d="M335.3,202s-15.62-3.35-20.36,1.95-11.43,8.92-18.68,8.09c0,0,9.76,7,21.75,5s17.29,0,17.29,0Z"/></clipPath></defs><g id="Layer_2" data-name="Layer 2"><g id="Objects"><path class="cls-2" d="M446.52,25A16.22,16.22,0,0,0,421,17a22.87,22.87,0,0,0-43.89-1.07c-.35,0-.71,0-1.07,0A12,12,0,0,0,364.1,26.44c-11,.49-15.2,11.69-11.32,20.9H462.24S465.6,24.75,446.52,25Z"/><path class="cls-2" d="M135.78,114.8a13,13,0,0,0-20.43-6.42,18.31,18.31,0,0,0-35.15-.86c-.29,0-.57,0-.86,0a9.65,9.65,0,0,0-9.58,8.46c-8.82.39-12.17,9.36-9.06,16.74h87.68S151.07,114.58,135.78,114.8Z"/><path class="cls-2" d="M231.31,84.39a11.8,11.8,0,0,1,18.56-5.84,16.64,16.64,0,0,1,31.94-.78q.38,0,.78,0a8.77,8.77,0,0,1,8.7,7.68c8,.36,11.06,8.51,8.23,15.22H219.86S217.42,84.19,231.31,84.39Z"/><path class="cls-2" d="M194,39.89a12.24,12.24,0,0,0-19.25-6.06A17.26,17.26,0,0,0,141.62,33c-.26,0-.53,0-.81,0a9.09,9.09,0,0,0-9,8c-8.31.37-11.47,8.83-8.54,15.78h82.61S208.4,39.68,194,39.89Z"/><path class="cls-2" d="M640.15,137.4a16.18,16.18,0,0,1,25.46-8,22.82,22.82,0,0,1,43.8-1.07c.35,0,.71-.05,1.07-.05a12,12,0,0,1,11.94,10.54c11,.48,15.16,11.67,11.29,20.87H624.45S621.1,137.13,640.15,137.4Z"/><path class="cls-2" d="M493.61,84.08a8,8,0,0,1,12.66-4,11.35,11.35,0,0,1,21.78-.53,4.71,4.71,0,0,1,.53,0,6,6,0,0,1,5.94,5.24c5.46.24,7.54,5.8,5.61,10.38H485.81S484.14,83.94,493.61,84.08Z"/><path class="cls-2" d="M571.23,39.73a10.41,10.41,0,0,1,16.37-5.15,14.68,14.68,0,0,1,28.18-.68c.22,0,.45,0,.68,0a7.74,7.74,0,0,1,7.68,6.78c7.07.32,9.75,7.51,7.26,13.42H561.14S559,39.56,571.23,39.73Z"/><path class="cls-3" d="M491.18,442.69H274.86V477.3l2.64-.73c10.56-2.94,21.65-5.82,32.68-8.55h0l.2,0c8.17-2,16.31-4,24.2-5.79h0l.51-.12c11.55-2.68,22.54-5.12,32.27-7.22l.34-.07h0c14.09-3,25.49-5.37,32-6.68,11.09,2.23,36.22,7.38,64.7,14l.44.1h0c7.89,1.83,16,3.77,24.18,5.79l.23,0h0c11,2.73,22.11,5.61,32.68,8.55l2.64.73V442.69Zm15.05,4.25H519.1l-12.87,17.5Zm-3,0-12,15.24V446.94ZM489.05,463.6c-3.79-.94-7.58-1.86-11.34-2.75l11.34-13.18Zm-2.16-16.66-9.28,10.77V446.94Zm-13.25,0-7.4,9.87v-9.87Zm-32.07,0v5.63l-5.68-1.24,4.64-4.39Zm11.94,0v8.29l-8.23-1.84,7.08-6.45Zm10.61,0v10.71L456.9,456l7-9.06Zm-2.93,0-5.56,7.22v-7.22Zm-12,0-5.52,5v-5Zm-11.77,0-3.56,3.37v-3.37Zm-5.68,3.49-4.73-1,2.72-2.48h2Zm-5.15-3.49-2,1.84v-1.84Zm-51.75,0v1.84l-2-1.84Zm-9.28,0v3.37L362,446.94Zm-30,0,7,9.06-7.22,1.65V446.94Zm11.51,0,7.08,6.45L346,455.23v-8.29Zm11.82,0,4.65,4.39-5.69,1.24v-5.63Zm-3.16,0v5l-5.51-5Zm-11.94,0v7.22l-5.55-7.22Zm-10.61,0v9.87l-7.39-9.87Zm-11.36,0v10.77l-9.28-10.77Zm-.1,13.91q-5.64,1.33-11.35,2.75V447.67Zm-13.47,1.33-12-15.24h12Zm-15-15.24v17.5l-12.88-17.5ZM279,448.73,293.19,468c-4.78,1.24-9.51,2.51-14.16,3.79Zm16.32,18.67V449.2l11.95,15.17Q301.32,465.86,295.35,467.4ZM324,460.32V448l7.84,10.47Zm43.73-13.38h2l2.71,2.48-4.72,1Zm9.28,1.51v-1.51h7.24Zm45.49-1.51v1.51l-7.23-1.51Zm53,1.06v12.32l-7.84-1.85Zm28.61,1.2v18.2c-4-1-8-2-11.94-3ZM506.27,468l14.15-19.23v23C515.78,470.47,511,469.2,506.27,468Z"/><polygon class="cls-4" points="394.09 431.29 274.86 431.29 274.86 444.81 394.09 444.81 405.37 444.81 524.6 444.81 524.6 431.29 405.37 431.29 394.09 431.29"/><path class="cls-3" d="M274.86,477.3s85.39-20.94,124.87-20.94S524.6,477.3,524.6,477.3v-2.21l-116-27-12.85-3Z"/><path class="cls-5" d="M530,277.44l10.12-11.79-21.66.15-.15-.15-.12.15-11.82.08.2-.23L485,265.8l-.15-.15-.12.15-12.3.08.2-.23-21.67.15-.14-.15-.13.15-11.81.08.2-.23-21.67.15-.14-.15-.13.15-19,.13,10.12,10.21L398.1,287.92l21.66-.14.14.14.13-.15,11.81-.08-.19.23,21.66-.14.14.14.13-.15,12.3-.08-.2.23,21.66-.14.15.14.12-.15,11.81-.08-.19.23,21.66-.14.14.14.13-.15,19-.12Zm5-9.42-6.66,7.76-7.59-7.66Zm-8.19,9.53-6,6.93L512.52,276l6-6.93Zm-16-3.19-6.08-6.13,11.42-.08ZM501.31,268l.1.11-6.57,7.65-7.59-7.66Zm-8,9.53-5.95,6.93L479,276l5.95-6.93Zm-16-3.19-6.08-6.13,11.42-.08ZM467.46,268l-6.66,7.76-7.59-7.66Zm-8.18,9.53-5.95,6.93L444.94,276l5.95-6.93Zm-16-3.19-6.08-6.13,11.42-.08ZM433.72,268l.11.11-6.57,7.65-7.6-7.66Zm-8,9.53-6,6.93L411.39,276l5.95-6.93Zm-22.07-9.32,11.41-.08-5.33,6.21Zm-.45,17.32,6.66-7.75,7.59,7.66Zm24.17-6.33,6.08,6.13-11.41.08Zm1.52-1.78,6.57-7.65,6.3,6.35-6.57,7.64Zm8.05,8.11-.1-.1,6.56-7.65,7.6,7.66Zm24-6.33,6.08,6.13-11.41.08Zm1.52-1.78,6.8-7.91,6.55,6.61L469,284.05Zm8.34,8.11,6.66-7.75,7.59,7.66ZM495,279.22l6.09,6.13-11.42.08Zm1.53-1.78,6.57-7.65,6.29,6.35-6.57,7.64Zm8,8.11-.1-.1L511,277.8l7.59,7.66Zm24-6.33,6.09,6.13-11.42.08Z"/><polygon class="cls-6" points="463.68 282.31 465.22 282.31 542.13 282.31 542.13 296.22 465.22 296.22 463.68 296.22 386.77 296.22 386.77 282.31 463.68 282.31"/><rect class="cls-4" x="779.81" y="427.61" width="19.65" height="6.62"/><rect class="cls-7" x="761.89" y="408.29" width="2.3" height="24.33"/><rect class="cls-7" x="733.98" y="394.26" width="2.3" height="38.36"/><rect class="cls-7" x="706.06" y="376.08" width="2.3" height="56.54"/><rect class="cls-7" x="678.15" y="356.13" width="2.3" height="76.49"/><polygon class="cls-7" points="652.53 432.62 650.23 432.62 650.23 327.59 652.65 329.52 652.53 432.62"/><rect class="cls-7" x="622.32" y="292.54" width="2.31" height="140.08"/><path class="cls-7" d="M763.75,424.4a62.13,62.13,0,0,1-9.72-8.85c3.21-1.36,6.51-2.88,9.59-4.54l-1.16-3.35c-3.52,1.88-7.33,3.6-11,5.09-8-9.13-15.15-19.41-15.26-19.56l-1.44,1.54-.71-1.6a116.07,116.07,0,0,1-11.91,6.31c-7.09-11-13.68-21.84-13.79-22l-.86.8-1-2.43A130.68,130.68,0,0,1,694,382.53c-6.38-13.37-12.15-27-12.25-27.25l-2,1.34-.92-3.05a77.69,77.69,0,0,1-12.72,4.21c-7-14.79-13.3-28-13.41-28.26l-1.51,1.11-.91-3a61.39,61.39,0,0,1-13.89-3.73c-5.54-15.22-11.63-31-11.72-31.32l-1.35,3.26c.35,1,4.33,12.79,9.21,26.32a73.19,73.19,0,0,1-8.5-4.81l-1.42,3.2a76.34,76.34,0,0,0,11.63,6.32c5.4,14.75,13.34,31.9,16.75,37.44l.46-3.77c-3-4.9-8.38-18.52-13.41-32.14a47.28,47.28,0,0,0,12.3,2.9l.35.36c.1.22,5.61,12.58,12.36,26.91-6.35,1.49-11.71,2.39-11.81,2.41l.39,3.62c.42-.07,6.28-1.05,13-2.68,4.76,10.13,9.68,20.69,13,28.1l1.28-.89,1.28-.89c-3.21-7.16-7.91-17.27-12.53-27.09a80.15,80.15,0,0,0,11.64-3.87c.89,2.1,6.09,14.31,12,26.6-6.77,3.12-12.25,5.22-12.34,5.25l.86,3.49c.1,0,5.91-2.26,13-5.55,4.75,9.78,9.72,19.05,13,22.64l1.32-1.88.64,2.22c.48-.21,6.85-3,13.52-6.2,4.27,6.53,8.59,12.88,11.74,16.85l2.09-2.56c-2.91-3.67-6.92-9.53-10.94-15.68,4.29-2.08,8.37-4.17,10.73-5.66,2,2.84,7.33,10.19,13.43,17.28-7.41,2.87-13.39,4.61-13.48,4.64l.66,3.56c.1,0,7-2.06,15.32-5.35a70.93,70.93,0,0,0,11.56,10.72Zm-56.54-18c-3-3.6-7.38-11.81-11.68-20.64,3.59-1.72,7.34-3.66,10.75-5.69,1.25,2.05,6.86,11.25,13,20.8C713.85,403.38,708.76,405.66,707.21,406.35Z"/><path class="cls-3" d="M789.87,429.8h0c-76.46,0-121.63-39.86-146.07-73.28-26.5-36.25-35-73-35.09-73.42l-.05-.39-.94-19.49,3,5.54C672.45,382.54,797.08,420.65,798.33,421l1.13.33v8.24l-1.43,0C795.3,429.75,792.55,429.8,789.87,429.8ZM611.57,282.29c.67,2.81,9.36,37.58,34.48,71.9,24,32.82,68.5,71.95,143.81,72h0c2.19,0,4.42,0,6.65-.1v-1.82c-12.52-4.05-125.18-43-185.24-148Z"/><rect class="cls-4" x="618.74" y="431.48" width="180.71" height="11.64"/><rect class="cls-8" x="545.26" y="249.29" width="59.09" height="181.85"/><rect class="cls-9" x="538.41" y="249.29" width="9.3" height="181.85"/><rect class="cls-9" x="600.67" y="249.29" width="9.3" height="181.85"/><path class="cls-10" d="M613.67,377.89c0,.46-.69.85-1.55.85H536c-.86,0-1.55-.39-1.55-.85h0c0-.48.69-.87,1.55-.87h76.15c.86,0,1.55.39,1.55.87Z"/><path class="cls-10" d="M613.67,371.25c0,.48-.69.86-1.55.86H536c-.86,0-1.55-.38-1.55-.86h0c0-.48.69-.86,1.55-.86h76.15c.86,0,1.55.38,1.55.86Z"/><path class="cls-10" d="M613.67,343.33c0,.47-.69.86-1.55.86H536c-.86,0-1.55-.39-1.55-.86h0c0-.48.69-.87,1.55-.87h76.15c.86,0,1.55.39,1.55.87Z"/><path class="cls-10" d="M613.67,336.69c0,.48-.69.87-1.55.87H536c-.86,0-1.55-.39-1.55-.87h0c0-.47.69-.86,1.55-.86h76.15c.86,0,1.55.39,1.55.86Z"/><path class="cls-10" d="M613.67,308.77c0,.48-.69.86-1.55.86H536c-.86,0-1.55-.38-1.55-.86h0c0-.48.69-.86,1.55-.86h76.15c.86,0,1.55.38,1.55.86Z"/><path class="cls-10" d="M613.67,302.14c0,.47-.69.86-1.55.86H536c-.86,0-1.55-.39-1.55-.86h0c0-.48.69-.86,1.55-.86h76.15c.86,0,1.55.38,1.55.86Z"/><rect class="cls-10" x="536.01" y="246.05" width="76.07" height="3.24"/><rect class="cls-11" x="557.21" y="262.65" width="7.04" height="15.55"/><polygon class="cls-5" points="564.26 269.95 561.44 269.95 561.44 262.65 560.22 262.65 560.22 269.95 557.21 269.95 557.21 270.89 560.22 270.89 560.22 278.2 561.44 278.2 561.44 270.89 564.26 270.89 564.26 269.95"/><rect class="cls-11" x="584.92" y="262.65" width="7.04" height="15.55"/><polygon class="cls-5" points="591.96 269.95 589.14 269.95 589.14 262.65 587.92 262.65 587.92 269.95 584.92 269.95 584.92 270.89 587.92 270.89 587.92 278.2 589.14 278.2 589.14 270.89 591.96 270.89 591.96 269.95"/><rect class="cls-11" x="568.62" y="262.65" width="11.69" height="15.55"/><polygon class="cls-5" points="580.31 269.95 577.5 269.95 577.5 262.65 576.28 262.65 576.28 269.95 575.67 269.95 573.27 269.95 572.85 269.95 572.85 262.65 571.63 262.65 571.63 269.95 568.62 269.95 568.62 270.89 571.63 270.89 571.63 278.2 572.85 278.2 572.85 270.89 573.27 270.89 575.67 270.89 576.28 270.89 576.28 278.2 577.5 278.2 577.5 270.89 580.31 270.89 580.31 269.95"/><rect class="cls-12" x="552.24" y="275.5" width="44.7" height="10.66"/><rect class="cls-11" x="557.21" y="350.59" width="7.04" height="15.55"/><polygon class="cls-5" points="564.26 357.89 561.44 357.89 561.44 350.59 560.22 350.59 560.22 357.89 557.21 357.89 557.21 358.83 560.22 358.83 560.22 366.14 561.44 366.14 561.44 358.83 564.26 358.83 564.26 357.89"/><rect class="cls-11" x="584.92" y="350.59" width="7.04" height="15.55"/><polygon class="cls-5" points="591.96 357.89 589.14 357.89 589.14 350.59 587.92 350.59 587.92 357.89 584.92 357.89 584.92 358.83 587.92 358.83 587.92 366.14 589.14 366.14 589.14 358.83 591.96 358.83 591.96 357.89"/><rect class="cls-11" x="568.62" y="350.59" width="11.69" height="15.55"/><polygon class="cls-5" points="580.31 357.89 577.5 357.89 577.5 350.59 576.28 350.59 576.28 357.89 575.67 357.89 573.27 357.89 572.85 357.89 572.85 350.59 571.63 350.59 571.63 357.89 568.62 357.89 568.62 358.83 571.63 358.83 571.63 366.14 572.85 366.14 572.85 358.83 573.27 358.83 575.67 358.83 576.28 358.83 576.28 366.14 577.5 366.14 577.5 358.83 580.31 358.83 580.31 357.89"/><rect class="cls-11" x="557.21" y="315.85" width="7.04" height="15.55"/><polygon class="cls-5" points="564.26 323.16 561.44 323.16 561.44 315.85 560.22 315.85 560.22 323.16 557.21 323.16 557.21 324.1 560.22 324.1 560.22 331.4 561.44 331.4 561.44 324.1 564.26 324.1 564.26 323.16"/><rect class="cls-11" x="584.92" y="315.85" width="7.04" height="15.55"/><polygon class="cls-5" points="591.96 323.16 589.14 323.16 589.14 315.85 587.92 315.85 587.92 323.16 584.92 323.16 584.92 324.1 587.92 324.1 587.92 331.4 589.14 331.4 589.14 324.1 591.96 324.1 591.96 323.16"/><rect class="cls-11" x="568.62" y="315.85" width="11.69" height="15.55"/><polygon class="cls-5" points="580.31 323.16 577.5 323.16 577.5 315.85 576.28 315.85 576.28 323.16 575.67 323.16 573.27 323.16 572.85 323.16 572.85 315.85 571.63 315.85 571.63 323.16 568.62 323.16 568.62 324.1 571.63 324.1 571.63 331.4 572.85 331.4 572.85 324.1 573.27 324.1 575.67 324.1 576.28 324.1 576.28 331.4 577.5 331.4 577.5 324.1 580.31 324.1 580.31 323.16"/><rect class="cls-11" x="557.21" y="386.4" width="7.04" height="15.55"/><polygon class="cls-5" points="564.26 393.71 561.44 393.71 561.44 386.4 560.22 386.4 560.22 393.71 557.21 393.71 557.21 394.64 560.22 394.64 560.22 401.95 561.44 401.95 561.44 394.64 564.26 394.64 564.26 393.71"/><rect class="cls-11" x="584.92" y="386.4" width="7.04" height="15.55"/><polygon class="cls-5" points="591.96 393.71 589.14 393.71 589.14 386.4 587.92 386.4 587.92 393.71 584.92 393.71 584.92 394.64 587.92 394.64 587.92 401.95 589.14 401.95 589.14 394.64 591.96 394.64 591.96 393.71"/><rect class="cls-11" x="568.62" y="386.4" width="11.69" height="15.55"/><polygon class="cls-5" points="580.31 393.71 577.5 393.71 577.5 386.4 576.28 386.4 576.28 393.71 575.67 393.71 573.27 393.71 572.85 393.71 572.85 386.4 571.63 386.4 571.63 393.71 568.62 393.71 568.62 394.64 571.63 394.64 571.63 401.95 572.85 401.95 572.85 394.64 573.27 394.64 575.67 394.64 576.28 394.64 576.28 401.95 577.5 401.95 577.5 394.64 580.31 394.64 580.31 393.71"/><path class="cls-12" d="M574.59,411.49c-5.64,0-6.48,4.32-6.48,4.32v15.34h13V415.81S580.22,411.49,574.59,411.49Z"/><polygon class="cls-12" points="552.33 197.25 548.27 197.25 548.27 193.36 547.14 193.36 547.14 197.25 543.08 197.25 543.08 198.11 547.14 198.11 547.14 205.52 548.27 205.52 548.27 198.11 552.33 198.11 552.33 197.25"/><polygon class="cls-12" points="547.7 203.44 538.41 225.9 547.7 225.9 557 225.9 547.7 203.44"/><polygon class="cls-12" points="599.73 203.44 590.43 225.9 599.73 225.9 609.03 225.9 599.73 203.44"/><polygon class="cls-12" points="604.36 197.82 600.29 197.82 600.29 193.93 599.17 193.93 599.17 197.82 595.11 197.82 595.11 198.69 599.17 198.69 599.17 206.1 600.29 206.1 600.29 198.69 604.36 198.69 604.36 197.82"/><polygon class="cls-8" points="551.37 212.29 596.07 212.29 590.43 225.9 557 225.9 551.37 212.29"/><rect class="cls-10" x="538.41" y="225.9" width="18.6" height="20.16"/><rect class="cls-10" x="590.43" y="225.9" width="18.6" height="20.16"/><polygon class="cls-8" points="573.83 173.44 557.75 212.29 573.83 212.29 589.91 212.29 573.83 173.44"/><polygon class="cls-8" points="581.83 163.72 574.81 163.72 574.81 157 572.86 157 572.86 163.72 565.83 163.72 565.83 165.22 572.86 165.22 572.86 178.04 574.81 178.04 574.81 165.22 581.83 165.22 581.83 163.72"/><polygon class="cls-12" points="573.83 206.1 557 225.9 557 246.05 590.43 246.05 590.43 225.9 573.83 206.1"/><path class="cls-8" d="M573.72,215.89s-8.55.36-11.55,9.9v20.26h23.1V225.79C582.26,216.25,573.72,215.89,573.72,215.89Z"/><rect class="cls-11" x="566.3" y="225.54" width="14.75" height="19.62"/><polygon class="cls-5" points="581.05 234.75 577.5 234.75 577.5 225.54 575.95 225.54 575.95 234.75 575.18 234.75 572.16 234.75 571.63 234.75 571.63 225.54 570.09 225.54 570.09 234.75 566.3 234.75 566.3 235.94 570.09 235.94 570.09 245.15 571.63 245.15 571.63 235.94 572.16 235.94 575.18 235.94 575.95 235.94 575.95 245.15 577.5 245.15 577.5 235.94 581.05 235.94 581.05 234.75"/><rect class="cls-13" x="524.6" y="431.15" width="98.61" height="72.08"/><rect class="cls-14" x="537.28" y="442.05" width="5.64" height="6.06"/><rect class="cls-14" x="559.82" y="442.05" width="5.63" height="6.06"/><rect class="cls-14" x="582.36" y="442.05" width="5.63" height="6.06"/><rect class="cls-14" x="604.9" y="442.05" width="5.63" height="6.06"/><path class="cls-15" d="M573.91,467.19S521,470.11,521,508.88h52.88Z"/><path class="cls-16" d="M573.9,467.19s52.88,2.92,52.88,41.69H573.9Z"/><rect class="cls-13" x="457.61" y="200.02" width="3.62" height="65.53"/><g class="cls-17"><rect class="cls-18" x="418.57" y="199.07" width="41.12" height="23.12"/><polygon class="cls-19" points="459.69 206.46 443.39 206.46 443.39 199.07 434.94 199.07 434.94 206.46 418.57 206.46 418.57 214.81 434.94 214.81 434.94 222.2 443.39 222.2 443.39 214.81 459.69 214.81 459.69 206.46"/><polygon class="cls-20" points="459.69 208.24 441.59 208.24 441.59 199.07 436.74 199.07 436.74 208.24 418.57 208.24 418.57 213.03 436.74 213.03 436.74 222.2 441.59 222.2 441.59 213.03 459.69 213.03 459.69 208.24"/><polygon class="cls-19" points="421.22 199.07 435.99 206.78 425.66 206.78 418.57 203.12 418.57 199.07 421.22 199.07"/><polygon class="cls-20" points="418.57 200.15 430.85 206.46 427.28 206.46 418.57 202.18 418.57 200.15"/><polygon class="cls-19" points="457.05 199.07 442.27 206.78 452.6 206.78 459.69 203.12 459.69 199.07 457.05 199.07"/><polygon class="cls-20" points="459.69 200.15 447.41 206.46 450.98 206.46 459.69 202.18 459.69 200.15"/><polygon class="cls-19" points="457.05 222.19 442.27 214.49 452.6 214.49 459.69 218.14 459.69 222.19 457.05 222.19"/><polygon class="cls-20" points="459.69 221.11 447.41 214.8 450.98 214.8 459.69 219.08 459.69 221.11"/><polygon class="cls-19" points="421.22 222.19 435.99 214.49 425.66 214.49 418.57 218.14 418.57 222.19 421.22 222.19"/><polygon class="cls-20" points="418.57 221.11 430.85 214.8 427.28 214.8 418.57 219.08 418.57 221.11"/></g><rect class="cls-6" x="386.77" y="264.75" width="155.35" height="4.19"/><rect class="cls-13" x="335.3" y="200.02" width="3.62" height="65.53"/><g class="cls-21"><rect class="cls-18" x="296.26" y="199.07" width="41.12" height="23.12"/><polygon class="cls-19" points="337.38 206.46 321.08 206.46 321.08 199.07 312.62 199.07 312.62 206.46 296.25 206.46 296.25 214.81 312.62 214.81 312.62 222.2 321.08 222.2 321.08 214.81 337.38 214.81 337.38 206.46"/><polygon class="cls-20" points="337.38 208.24 319.27 208.24 319.27 199.07 314.42 199.07 314.42 208.24 296.25 208.24 296.25 213.03 314.42 213.03 314.42 222.2 319.27 222.2 319.27 213.03 337.38 213.03 337.38 208.24"/><polygon class="cls-19" points="298.9 199.07 313.67 206.78 303.35 206.78 296.25 203.12 296.25 199.07 298.9 199.07"/><polygon class="cls-20" points="296.25 200.15 308.54 206.46 304.96 206.46 296.25 202.18 296.25 200.15"/><polygon class="cls-19" points="334.73 199.07 319.96 206.78 330.28 206.78 337.38 203.12 337.38 199.07 334.73 199.07"/><polygon class="cls-20" points="337.38 200.15 325.1 206.46 328.67 206.46 337.38 202.18 337.38 200.15"/><polygon class="cls-19" points="334.73 222.19 319.96 214.49 330.28 214.49 337.38 218.14 337.38 222.19 334.73 222.19"/><polygon class="cls-20" points="337.38 221.11 325.1 214.8 328.67 214.8 337.38 219.08 337.38 221.11"/><polygon class="cls-19" points="298.9 222.19 313.67 214.49 303.35 214.49 296.25 218.14 296.25 222.19 298.9 222.19"/><polygon class="cls-20" points="296.25 221.11 308.54 214.8 304.96 214.8 296.25 219.08 296.25 221.11"/></g><path class="cls-5" d="M259.3,287.65l19,.12.13.15.15-.14,21.66.14-.2-.23,11.81.08.13.15.15-.14,21.66.14-.2-.23,12.3.08.13.15.14-.14,21.66.14-.19-.23,11.81.08.12.15.15-.14,21.66.14-10.12-11.78,10.12-10.21-19-.13-.13-.15-.15.15-21.66-.15.2.23-11.81-.08-.13-.15-.15.15-21.66-.15.2.23-12.3-.08-.13-.15-.14.15-21.66-.15.19.23-11.81-.08-.13-.15-.14.15-21.66-.15,10.12,11.79Zm19.36-19.53-7.59,7.66L264.41,268Zm2.32,1,5.95,6.93-8.39,8.46-6-6.93Zm2.27-.94,11.41.08-6.08,6.13Zm29,0-7.59,7.66-6.57-7.65.1-.11Zm2.32,1,6,6.93-8.39,8.46-5.95-6.93Zm2.27-.94,11.41.08-6.08,6.13Zm29.44,0-7.59,7.66L332,268Zm2.33,1,5.95,6.93-8.39,8.46-5.95-6.93Zm2.26-.94,11.42.08-6.08,6.13Zm29,0-7.59,7.66-6.57-7.65.1-.11Zm2.32,1,5.95,6.93-8.38,8.46-5.95-6.93Zm7.61,5.27-5.34-6.21,11.42.08ZM382,285.46l7.59-7.66,6.66,7.75Zm-4.59,0L366,285.35l6.09-6.13Zm-13.15-1.65-6.57-7.64,6.29-6.35,6.57,7.65Zm-15.81,1.68L356,277.8l6.57,7.65-.1.1Zm-4.59,0-11.42-.08,6.09-6.13Zm-13.41-1.38-6.79-7.91,6.55-6.61,6.79,7.91Zm-16,1.41,7.6-7.66,6.66,7.75Zm-4.58,0-11.42-.08,6.08-6.13Zm-13.15-1.65-6.57-7.64,6.29-6.35,6.57,7.65Zm-15.82,1.68,7.6-7.66,6.57,7.65-.11.1Zm-4.58,0-11.42-.08,6.08-6.13Z"/><polygon class="cls-6" points="335.78 282.31 334.23 282.31 257.33 282.31 257.33 296.22 334.23 296.22 335.78 296.22 412.69 296.22 412.69 282.31 335.78 282.31"/><rect class="cls-6" x="257.33" y="264.75" width="155.35" height="4.19"/><rect class="cls-6" x="415.37" y="240.92" width="9.24" height="55.08"/><rect class="cls-6" x="371.59" y="240.92" width="9.24" height="55.08"/><rect class="cls-22" x="380.82" y="257.42" width="34.55" height="27.02"/><path class="cls-6" d="M421.42,236.88h-.78v-4.34h-1.86v4.34h-.22c-2.89,0-5.23,1.31-5.23,2.93s2.34,2.92,5.23,2.92h.22v6.56h1.86v-6.56h.78c2.89,0,5.24-1.31,5.24-2.92S424.31,236.88,421.42,236.88Z"/><path class="cls-6" d="M377.63,236.88h-.79v-4.34H375v4.34h-.22c-2.89,0-5.23,1.31-5.23,2.93s2.34,2.92,5.23,2.92H375v6.56h1.85v-6.56h.79c2.89,0,5.24-1.31,5.24-2.92S380.52,236.88,377.63,236.88Z"/><path class="cls-22" d="M400.74,249.53h-1.4V238.7h-3.28v10.83h-.38c-5.12,0-9.27,2.32-9.27,5.18s4.15,5.18,9.27,5.18h5.06c5.11,0,9.27-2.32,9.27-5.18S405.85,249.53,400.74,249.53Z"/><rect class="cls-4" y="427.61" width="19.65" height="6.62"/><rect class="cls-7" x="35.26" y="408.29" width="2.31" height="24.33"/><path class="cls-7" d="M37.12,427.61a71.33,71.33,0,0,0,11.56-10.72c8.26,3.29,15.21,5.32,15.32,5.35l.66-3.56c-.09,0-6.07-1.77-13.48-4.64,6.1-7.09,11.42-14.44,13.43-17.28,2.36,1.49,6.43,3.58,10.73,5.66-4,6.15-8,12-10.94,15.68l2.09,2.56c3.15-4,7.47-10.32,11.73-16.85,6.67,3.17,13,6,13.53,6.2l.64-2.22,1.31,1.88c3.3-3.59,8.26-12.86,13-22.64,7.09,3.29,12.91,5.52,13,5.55l.86-3.49c-.1,0-5.57-2.13-12.34-5.25,5.86-12.29,11.06-24.5,12-26.6a79.6,79.6,0,0,0,11.63,3.87c-4.61,9.82-9.31,19.93-12.52,27.09l1.28.89,1.28.89c3.32-7.41,8.24-18,13-28.1,6.73,1.63,12.58,2.61,13,2.68l.39-3.62c-.1,0-5.46-.92-11.82-2.41,6.75-14.33,12.26-26.69,12.37-26.91l.35-.36a47.21,47.21,0,0,0,12.29-2.9c-5,13.62-10.38,27.24-13.4,32.14l.45,3.77c3.42-5.54,11.36-22.69,16.76-37.44a76.93,76.93,0,0,0,11.63-6.32l-1.42-3.2a74.26,74.26,0,0,1-8.5,4.81c4.88-13.53,8.86-25.29,9.21-26.32l-1.35-3.26c-.1.28-6.19,16.1-11.73,31.32a61.45,61.45,0,0,1-13.88,3.73l-.92,3-1.5-1.11c-.11.23-6.45,13.47-13.41,28.26a77.05,77.05,0,0,1-12.72-4.21l-.93,3.05-2-1.34c-.11.24-5.87,13.88-12.26,27.25a131.88,131.88,0,0,1-12.55-6.74l-1,2.43-.85-.8c-.11.18-6.71,11.06-13.79,22a116.07,116.07,0,0,1-11.91-6.31l-.71,1.6-1.45-1.54A246.22,246.22,0,0,1,48,412.75c-3.63-1.49-7.44-3.21-11-5.09L35.83,411c3.09,1.66,6.39,3.18,9.6,4.54a62.13,62.13,0,0,1-9.72,8.85Zm43-26.79c6.16-9.55,11.77-18.75,13-20.8,3.4,2,7.16,4,10.74,5.69-4.29,8.83-8.68,17-11.67,20.64C90.7,405.66,85.61,403.38,80.16,400.82Z"/><rect class="cls-7" x="63.18" y="394.26" width="2.3" height="38.36"/><rect class="cls-7" x="91.09" y="376.08" width="2.3" height="56.54"/><rect class="cls-7" x="119.01" y="356.13" width="2.31" height="76.49"/><polygon class="cls-7" points="146.92 432.62 149.23 432.62 149.23 327.59 146.81 329.52 146.92 432.62"/><rect class="cls-7" x="174.84" y="292.54" width="2.31" height="140.08"/><path class="cls-3" d="M1.43,429.65,0,429.6v-8.24L1.13,421c1.25-.38,125.87-38.49,187.61-152.27l3-5.54-.93,19.49-.05.39c-.08.37-8.6,37.17-35.09,73.42C131.23,389.94,86.05,429.8,9.6,429.8h0C6.91,429.8,4.16,429.75,1.43,429.65ZM188.18,276.18c-60.06,105.1-172.73,144-185.24,148.05v1.82c2.23.06,4.46.1,6.65.1h0c75.31,0,119.77-39.14,143.8-72,25.13-34.32,33.82-69.09,34.49-71.9Z"/><rect class="cls-4" y="431.48" width="180.71" height="11.64"/><rect class="cls-8" x="195.1" y="249.29" width="59.09" height="181.85"/><rect class="cls-9" x="251.75" y="249.29" width="9.3" height="181.85"/><rect class="cls-9" x="189.49" y="249.29" width="9.3" height="181.85"/><path class="cls-10" d="M185.78,377.89c0,.46.7.85,1.56.85h76.15c.85,0,1.55-.39,1.55-.85h0c0-.48-.7-.87-1.55-.87H187.34c-.86,0-1.56.39-1.56.87Z"/><path class="cls-10" d="M185.78,371.25c0,.48.7.86,1.56.86h76.15c.85,0,1.55-.38,1.55-.86h0c0-.48-.7-.86-1.55-.86H187.34c-.86,0-1.56.38-1.56.86Z"/><path class="cls-10" d="M185.78,343.33c0,.47.7.86,1.56.86h76.15c.85,0,1.55-.39,1.55-.86h0c0-.48-.7-.87-1.55-.87H187.34c-.86,0-1.56.39-1.56.87Z"/><path class="cls-10" d="M185.78,336.69c0,.48.7.87,1.56.87h76.15c.85,0,1.55-.39,1.55-.87h0c0-.47-.7-.86-1.55-.86H187.34c-.86,0-1.56.39-1.56.86Z"/><path class="cls-10" d="M185.78,308.77c0,.48.7.86,1.56.86h76.15c.85,0,1.55-.38,1.55-.86h0c0-.48-.7-.86-1.55-.86H187.34c-.86,0-1.56.38-1.56.86Z"/><path class="cls-10" d="M185.78,302.14c0,.47.7.86,1.56.86h76.15c.85,0,1.55-.39,1.55-.86h0c0-.48-.7-.86-1.55-.86H187.34c-.86,0-1.56.38-1.56.86Z"/><rect class="cls-10" x="187.37" y="246.05" width="76.07" height="3.24"/><rect class="cls-11" x="235.2" y="350.59" width="7.04" height="15.55"/><polygon class="cls-5" points="235.2 357.89 238.02 357.89 238.02 350.59 239.24 350.59 239.24 357.89 242.25 357.89 242.25 358.83 239.24 358.83 239.24 366.14 238.02 366.14 238.02 358.83 235.2 358.83 235.2 357.89"/><rect class="cls-11" x="207.5" y="350.59" width="7.04" height="15.55"/><polygon class="cls-5" points="207.5 357.89 210.31 357.89 210.31 350.59 211.53 350.59 211.53 357.89 214.54 357.89 214.54 358.83 211.53 358.83 211.53 366.14 210.31 366.14 210.31 358.83 207.5 358.83 207.5 357.89"/><rect class="cls-11" x="219.14" y="350.59" width="11.69" height="15.55"/><polygon class="cls-5" points="219.14 357.89 221.96 357.89 221.96 350.59 223.18 350.59 223.18 357.89 223.79 357.89 226.19 357.89 226.61 357.89 226.61 350.59 227.83 350.59 227.83 357.89 230.84 357.89 230.84 358.83 227.83 358.83 227.83 366.14 226.61 366.14 226.61 358.83 226.19 358.83 223.79 358.83 223.18 358.83 223.18 366.14 221.96 366.14 221.96 358.83 219.14 358.83 219.14 357.89"/><rect class="cls-11" x="235.2" y="315.85" width="7.04" height="15.55"/><polygon class="cls-5" points="235.2 323.16 238.02 323.16 238.02 315.85 239.24 315.85 239.24 323.16 242.25 323.16 242.25 324.1 239.24 324.1 239.24 331.4 238.02 331.4 238.02 324.1 235.2 324.1 235.2 323.16"/><rect class="cls-11" x="207.5" y="315.85" width="7.04" height="15.55"/><polygon class="cls-5" points="207.5 323.16 210.31 323.16 210.31 315.85 211.53 315.85 211.53 323.16 214.54 323.16 214.54 324.1 211.53 324.1 211.53 331.4 210.31 331.4 210.31 324.1 207.5 324.1 207.5 323.16"/><rect class="cls-11" x="219.14" y="315.85" width="11.69" height="15.55"/><polygon class="cls-5" points="219.14 323.16 221.96 323.16 221.96 315.85 223.18 315.85 223.18 323.16 223.79 323.16 226.19 323.16 226.61 323.16 226.61 315.85 227.83 315.85 227.83 323.16 230.84 323.16 230.84 324.1 227.83 324.1 227.83 331.4 226.61 331.4 226.61 324.1 226.19 324.1 223.79 324.1 223.18 324.1 223.18 331.4 221.96 331.4 221.96 324.1 219.14 324.1 219.14 323.16"/><rect class="cls-11" x="235.2" y="262.65" width="7.04" height="15.55"/><polygon class="cls-5" points="235.2 269.95 238.02 269.95 238.02 262.65 239.24 262.65 239.24 269.95 242.25 269.95 242.25 270.89 239.24 270.89 239.24 278.2 238.02 278.2 238.02 270.89 235.2 270.89 235.2 269.95"/><rect class="cls-11" x="207.5" y="262.65" width="7.04" height="15.55"/><polygon class="cls-5" points="207.5 269.95 210.31 269.95 210.31 262.65 211.53 262.65 211.53 269.95 214.54 269.95 214.54 270.89 211.53 270.89 211.53 278.2 210.31 278.2 210.31 270.89 207.5 270.89 207.5 269.95"/><rect class="cls-11" x="219.14" y="262.65" width="11.69" height="15.55"/><polygon class="cls-5" points="219.14 269.95 221.96 269.95 221.96 262.65 223.18 262.65 223.18 269.95 223.79 269.95 226.19 269.95 226.61 269.95 226.61 262.65 227.83 262.65 227.83 269.95 230.84 269.95 230.84 270.89 227.83 270.89 227.83 278.2 226.61 278.2 226.61 270.89 226.19 270.89 223.79 270.89 223.18 270.89 223.18 278.2 221.96 278.2 221.96 270.89 219.14 270.89 219.14 269.95"/><rect class="cls-12" x="202.52" y="275.5" width="44.7" height="10.66"/><rect class="cls-11" x="235.2" y="386.4" width="7.04" height="15.55"/><polygon class="cls-5" points="235.2 393.71 238.02 393.71 238.02 386.4 239.24 386.4 239.24 393.71 242.25 393.71 242.25 394.64 239.24 394.64 239.24 401.95 238.02 401.95 238.02 394.64 235.2 394.64 235.2 393.71"/><rect class="cls-11" x="207.5" y="386.4" width="7.04" height="15.55"/><polygon class="cls-5" points="207.5 393.71 210.31 393.71 210.31 386.4 211.53 386.4 211.53 393.71 214.54 393.71 214.54 394.64 211.53 394.64 211.53 401.95 210.31 401.95 210.31 394.64 207.5 394.64 207.5 393.71"/><rect class="cls-11" x="219.14" y="386.4" width="11.69" height="15.55"/><polygon class="cls-5" points="219.14 393.71 221.96 393.71 221.96 386.4 223.18 386.4 223.18 393.71 223.79 393.71 226.19 393.71 226.61 393.71 226.61 386.4 227.83 386.4 227.83 393.71 230.84 393.71 230.84 394.64 227.83 394.64 227.83 401.95 226.61 401.95 226.61 394.64 226.19 394.64 223.79 394.64 223.18 394.64 223.18 401.95 221.96 401.95 221.96 394.64 219.14 394.64 219.14 393.71"/><path class="cls-12" d="M224.87,411.49c5.64,0,6.48,4.32,6.48,4.32v15.34h-13V415.81S219.24,411.49,224.87,411.49Z"/><polygon class="cls-8" points="225.62 173.44 241.71 212.29 225.62 212.29 209.54 212.29 225.62 173.44"/><polygon class="cls-8" points="217.62 163.72 224.65 163.72 224.65 157 226.6 157 226.6 163.72 233.62 163.72 233.62 165.22 226.6 165.22 226.6 178.04 224.65 178.04 224.65 165.22 217.62 165.22 217.62 163.72"/><polygon class="cls-12" points="247.13 197.25 251.19 197.25 251.19 193.36 252.32 193.36 252.32 197.25 256.38 197.25 256.38 198.11 252.32 198.11 252.32 205.52 251.19 205.52 251.19 198.11 247.13 198.11 247.13 197.25"/><polygon class="cls-12" points="251.75 203.44 261.05 225.9 251.75 225.9 242.46 225.9 251.75 203.44"/><polygon class="cls-12" points="199.73 203.44 209.02 225.9 199.73 225.9 190.43 225.9 199.73 203.44"/><polygon class="cls-12" points="195.1 197.82 199.16 197.82 199.16 193.93 200.29 193.93 200.29 197.82 204.35 197.82 204.35 198.69 200.29 198.69 200.29 206.1 199.16 206.1 199.16 198.69 195.1 198.69 195.1 197.82"/><polygon class="cls-8" points="248.09 212.29 203.39 212.29 209.02 225.9 242.46 225.9 248.09 212.29"/><rect class="cls-10" x="242.46" y="225.9" width="18.6" height="20.16"/><rect class="cls-10" x="190.43" y="225.9" width="18.6" height="20.16"/><polygon class="cls-12" points="225.62 206.1 242.46 225.9 242.46 246.05 209.02 246.05 209.02 225.9 225.62 206.1"/><path class="cls-8" d="M225.74,215.89s8.55.36,11.55,9.9v20.26h-23.1V225.79C217.19,216.25,225.74,215.89,225.74,215.89Z"/><rect class="cls-11" x="218.41" y="225.54" width="14.75" height="19.62"/><polygon class="cls-5" points="218.41 234.75 221.96 234.75 221.96 225.54 223.5 225.54 223.5 234.75 224.27 234.75 227.29 234.75 227.83 234.75 227.83 225.54 229.37 225.54 229.37 234.75 233.16 234.75 233.16 235.94 229.37 235.94 229.37 245.15 227.83 245.15 227.83 235.94 227.29 235.94 224.27 235.94 223.5 235.94 223.5 245.15 221.96 245.15 221.96 235.94 218.41 235.94 218.41 234.75"/><rect class="cls-13" x="176.25" y="431.15" width="98.61" height="72.08"/><rect class="cls-14" x="256.54" y="442.05" width="5.64" height="6.06"/><rect class="cls-14" x="234" y="442.05" width="5.63" height="6.06"/><rect class="cls-14" x="211.47" y="442.05" width="5.63" height="6.06"/><rect class="cls-14" x="188.92" y="442.05" width="5.63" height="6.06"/><path class="cls-16" d="M225.55,467.19s52.88,2.92,52.88,41.69H225.55Z"/><path class="cls-15" d="M225.55,467.19s-52.87,2.92-52.87,41.69h52.87Z"/></g></g></svg>