<?xml version="1.0" encoding="utf-8"?>
<!-- Generator: Adobe Illustrator 25.1.0, SVG Export Plug-In . SVG Version: 6.00 Build 0)  -->
<svg version="1.1" id="Layer_1" xmlns="http://www.w3.org/2000/svg" xmlns:xlink="http://www.w3.org/1999/xlink" x="0px" y="0px"
	 viewBox="0 0 147.6 83.6" style="enable-background:new 0 0 147.6 83.6;" xml:space="preserve">
<style type="text/css">
	.st0{fill:none;stroke:#000000;stroke-width:1.0963;stroke-linecap:square;stroke-miterlimit:10;}
</style>
<image style="overflow:visible;" width="2400" height="1426" xlink:href="../../../../Screenshot 2021-05-15 at 14.01.18.png"  transform="matrix(0.5 0 0 0.5 -348.7141 120.8447)">
</image>
<g>
	<path d="M606-39.4c0.7-1.9,0.9-4,0.6-6.1c-0.4-3.2-0.8-6.4-1.2-9.5c-0.1-0.9-0.3-1.8-0.4-2.8c-0.2-0.6-1.6-0.3-1.6-0.3
		s-1.2,0.3-4.4,0.7c-0.8,0.2-1.7,0.1-2.5-0.3c-0.2-0.1-0.3-0.1-0.5-0.1c-1.3-0.2-2.6-0.3-3.9-0.2c-2.3,0-4.5,0-6.8,0
		c-1.9,0-3.8,0.1-5.7,0.1c-2.2,0-4.4,0-6.6,0h-9.4c-2.8,0-5.6,0-8.5,0c-0.5,0-0.9,0.1-1.5,0.1c0,0.8,0,1.6,0,2.3c0,1.2,0,2.4,0,3.5
		c0,0.5-0.4,1-1,1.1c0,0-1.5,0.2-2.1,0.4c-1.1,0.2-3.6,0.5-4.8,0.7l0,0l-0.9,0.2c0,0,0.2,1.1,0.2,1.5c0.4,2.6,0.8,5.2,1.2,7.7
		c0.3,1.7,0.6,3.4,0.9,5.1c0.8,3.2,3.4,5.7,6.6,6.5c0.1,5,0,1.1,0,16.2c5.5,0,16.6-0.1,16.6-0.1l0.1-9.6c0,0,0.1-4.4,0-6.6
		c0-0.8,0.1-0.9,0.9-1.1s1.5-0.3,2.2-0.4l8.8-1.3c0,0,1.1-0.1,1,0.3c0.1,1.4,0.2,2.8,0.3,4.3c0,0.3,0.1,0.6,0.2,0.9
		c0.2,0.4,0.4,0.9,0.4,1.5c0.2,2.4,0.3,5.9,0.5,8.3c0.1,1,0.1,2,0.3,3c0.1,0.8,0.1,1.2,0.7,1c3.4,0,7,0,10.4,0c1.9,0,3.9,0,5.8,0
		c0-0.1,0.1-0.1,0.1-0.2c0-0.1,0-0.2,0-0.3c-0.7-2.1-1-4.2-1-6.4c0-1.1-0.1-6.2-0.3-7.8c-0.4-2.4-1.7-4.5-3.6-6
		c-0.2-0.1-0.3-0.2-0.5-0.4c1-0.2,1.8-0.4,2.7-0.5C603.8-35.2,605.2-37.6,606-39.4z M589.2-33.3c-3.9,0.6-7.9,1.1-11.9,1.6
		l-10.2,1.3l-7.7,1c-1.5,0.3-3.1,0.3-4.6,0.2c-3.2-0.5-5.8-2.8-6.6-6c-0.6-2.2-1-4.4-1.3-6.6c-0.3-1.7-0.5-3.3-0.8-5
		c-0.1-0.6-0.2-1.7-0.3-2.4c2.8-0.4,7.6-1.4,10.2-1.7c2.2-0.3,4.5-0.5,6.8-0.9c2.8-0.4,5.7-0.8,8.5-1.2c2.9-0.4,5.4-0.7,8.1-1.1
		l9.4-1.3l7.2-1l7.5-1c0.6-0.1,0.7,0,0.8,0.6c0,0.3,0.1,0.5,0.1,0.8c0.4,2.6,0.7,5.3,1,7.9c0.4,2.1,0.5,4.2,0.3,6.3
		c-0.2,2.3-1.6,4.4-3.6,5.6c-1.4,0.8-2.9,1.3-4.4,1.6C594.8-34.1,592-33.7,589.2-33.3z"/>
	<path d="M553.4-39.6l47.6-3.1c0.1,0.3,0.1,0.6,0.1,0.8c0,0.7,0,1.5-0.1,2.2c-0.2,1.7-1.6,3-3.3,3c-2.8,0.2-5.5,0.3-8.3,0.5
		l-13.3,0.9l-10.7,0.7c-2.4,0.2-4.9,0.3-7.3,0.5c-0.7,0-1.4,0-2.1-0.2c-1.1-0.1-2.1-1-2.2-2.2C553.7-37.5,553.6-38.5,553.4-39.6z
		 M554.7-38.6c0,0.3,0,0.5,0,0.7c0.1,0.4,0.1,0.8,0.2,1.2c0.2,1,1.1,1.8,2.2,1.7c0.8,0,1.6,0,2.4-0.1l11.6-0.7l8.1-0.5l7.1-0.4
		l7.4-0.5c1.3-0.1,2.6-0.2,4-0.3c1,0,1.9-0.6,2.3-1.6c0.2-0.7,0.3-1.5,0.1-2.3C599.1-41.7,555.8-39,554.7-38.6z"/>
	<ellipse transform="matrix(0.1414 -0.9899 0.9899 0.1414 540.6776 524.59)" cx="572.8" cy="-49.4" rx="2" ry="2.4"/>
	<ellipse transform="matrix(0.1414 -0.9899 0.9899 0.1414 556.3608 550.2492)" cx="595.4" cy="-45.6" rx="2" ry="2.4"/>
	<path class="st0" d="M585.5-12.5h19c4.1,0,7.3-3.3,7.3-7.3c0,0,0,0,0,0v-55.3c0-4.1-3.3-7.3-7.3-7.3h-55.3c-4.1,0-7.3,3.3-7.3,7.3
		v55.3c0,4,3.3,7.3,7.3,7.3c0,0,0,0,0,0h20.6"/>
</g>
<g>
	<path d="M538.2,24.9c0.5-1.1,0.1-2.1,0-3.1c0-0.3-0.1-0.7,0-1c0.2-1.6,0.7-3.1,2.1-3.9c0.7-0.4,1.6-0.5,2.4-0.6
		c1.1,0,2.2,0,3.2,0.2c0.9,0.2,1.9,0.5,2.6,1.3c1,0.9,1.3,2.1,1.1,3.4c-0.1,0.6-0.6,1.2-1,1.7c-0.5,0.6-1,1.1-1.6,1.5
		c-0.4,0.3-1,0.4-1.5,0.7c-0.4,0.2-0.9,0.5-1.3,0.8c-0.1,0.1-0.1,0.3-0.1,0.5c0.1,0.1,0.3,0.2,0.4,0.3c0.7,0.1,1.4,0.3,2,0.3
		c0.4,0,0.7,0,1.1,0c0.7-0.1,1.5-0.2,2.1-0.6c0.5-0.3,1-0.3,1.4-0.8c0.3-0.4,0.8-0.6,1.2-0.9c0.8-0.5,1-1.3,1.3-2.1
		c0.2-0.7,0.5-1.4,0.8-2.1c0.2-0.4,1.2-0.7,1.5-0.6c0.5,0.3,0.7,0.7,0.7,1.3c0,0.7,0,1.5,0,2.2c0,0.6,0.3,1.1,0.7,1.6
		c0.4,0.5,0.9,0.2,1.3,0.3c1.2,0.3,2.1-0.4,2.9-1.1c0.9-0.8,1.8-1.6,2.7-2.5c0.3-0.3,0.4-0.8,0.7-1c0.3-0.3,0.8-0.5,1.2-0.7
		c0.4-0.1,0.9,0.4,0.9,0.9c0,1-0.2,2,0.1,3c0.1,0.4,0.3,0.8,0.5,1.2c0.4,0.7,1.1,0.5,1.7,0.5c0.4,0,0.9,0,1.1-0.5
		c0.1-0.2,0.5-0.2,0.7-0.3c0.5-0.2,0.9-0.5,1.3-0.8c0.4-0.2,0.8-0.5,1.2-0.6c0.4-0.2,0.7-0.6,1.1-0.7c0.9-0.4,1.6-1.2,2.7-1
		c0.6,0.1,1.2,0.8,1.2,1.4c0,0.8-0.3,1.5-0.7,2.2c0,0.1-0.2,0.1-0.3,0.1c-0.1,0-0.2-0.1-0.3-0.1c-0.5-0.2-0.7-1-1.4-0.6
		c-0.5,0.3-1,0.5-1.5,0.8c-0.5,0.3-1.1,0.7-1.6,1.1c-0.5,0.3-1.2,0.5-1.6,0.9c-0.4,0.4-0.8,0.6-1.3,0.7c-0.7,0.1-1.3,0.7-2,0.3
		c-0.6-0.3-1.3-0.7-1.8-1.1c-0.4-0.4-0.8-0.9-1.1-1.4c-0.2-0.3-0.2-0.7-0.3-1.1c0-0.1-0.1-0.1-0.1-0.2c-0.4,0.2-0.9,0.3-1,0.9
		c-0.1,0.3-0.6,0.5-0.8,0.7c-0.7,0.7-1.6,1.2-2.6,1.6c-1,0.4-2.1,0.5-3.1,0.3c-0.1,0-0.2-0.2-0.3-0.3c-0.2-0.1-0.5,0-0.7-0.2
		c-0.5-0.4-1.2-0.6-1.5-1.2c-0.1-0.1-0.4-0.1-0.6-0.1c-0.6,0.4-1.1,0.9-1.7,1.3c-0.7,0.4-1.3,1-2.2,1.1c-0.5,0-1,0.3-1.4,0.5
		c-0.8,0.3-1.5,0.4-2.4,0.1c-0.4-0.1-0.9-0.2-1.4-0.3c-0.5-0.1-1-0.2-1.4-0.4c-0.9-0.4-1.9-0.8-2.7-1.4c-0.6-0.4-1-0.3-1.7-0.3
		c-0.8,0-1.6,0.4-2.4,0c-0.6-0.3-1.5-0.1-2.3-0.2c-0.3,0-0.6-0.1-1-0.2c-0.7-0.2-1.4-0.4-2.1-0.7c-0.6-0.3-1.2-0.6-1.9-0.9
		c-1.1-0.5-2.1-1-3.2-1.5c-0.2-0.1-0.3-0.2-0.5-0.3c-0.9-0.5-1.8-1.1-2.6-1.6c-1-0.6-1.9-1.1-2.9-1.7c-0.4-0.2-0.6-1.1-0.4-1.5
		c0.3-0.5,0.8-0.7,1.5-0.6c0.2,0,0.3,0,0.5,0c0.6-0.1,1.3-0.1,1.9-0.3c0.3-0.1,0.6-0.3,0.9-0.4c0.4-0.1,0.9-0.2,1.2-0.4
		c0.7-0.4,1.4-1,2.1-1.5c0.1-0.1,0.3-0.1,0.5-0.1c0.4-0.7,0.7-1.5,1.6-1.9c0.2-0.1,0.2-0.4,0.4-0.6c0.3-0.3,0.6-0.6,0.8-0.9
		c0.2-0.2,0.2-0.5,0.3-0.7c0.4-0.8,0.7-1.7,1.1-2.6c0.5-1.3,0.7-2.6,0.5-4c-0.1-0.5,0-0.9-0.1-1.4c-0.1-0.5-0.3-0.9-0.5-1.4
		c-0.3-0.6-0.6-1.3-1-1.8c-0.5-0.6-1.1-1.1-2-1.4c-0.4-0.1-0.7-0.3-1.1-0.4c-1-0.3-1.9-0.4-2.9-0.1c-0.6,0.2-1.2,0.3-1.8,0.6
		c-0.4,0.2-0.8,0.6-1.1,0.9c-0.6,0.7-1.2,1.3-1.7,2.1c-0.3,0.4-0.3,0.9-0.5,1.4c0,0.1,0,0.2,0,0.2c-1.1,1.4-1.2,3.2-1.8,4.8
		c-0.2,0.6-0.4,1.4-0.4,2c0,1.1-0.5,2.1-0.6,3.2c0,0.6-0.1,1.2-0.4,1.7c-0.1,0.1,0,0.5,0,0.7c-0.2,1.1-0.1,2.2,0.1,3.3
		c0.1,0.5,0.1,1,0,1.5c-0.1,0.5,0.1,1,0.2,1.4c0.2,0.4,0.2,0.9,0.3,1.4c0.3,1,0.7,1.8,1.4,2.5c0.1,0,0.1,0.1,0.2,0.1
		c0.9-0.2,0.9,0.6,1,1c0.1,0.6,0.3,1.3-0.3,1.9c-0.4,0.3-0.8,0.3-1.2,0.2c-0.8-0.3-1.5-0.9-1.9-1.5c-0.3-0.5-0.7-1-0.8-1.7
		c-0.4-1.2-1-2.4-0.9-3.7c0.1-0.9-0.1-1.7-0.2-2.6c-0.1-0.5,0-1,0.1-1.5c0-0.2,0-0.4,0-0.6c0-0.1-0.1-0.3-0.1-0.4
		c0.1-1.1,0.1-2.2,0.3-3.2c0.1-0.4,0.5-0.8,0.5-1.3c0-0.8,0.1-1.7,0.2-2.5c0.1-1,0.3-2,0.5-3c0.1-0.5,0.4-1,0.6-1.5
		c0.1-0.4,0.3-0.7,0.4-1.1c0.2-0.4,0.3-0.9,0.4-1.3c0.2-0.5,0.5-1.1,0.7-1.6c0.5-1.1,1-2.1,1.9-2.9c0.2-0.2,0.4-0.3,0.5-0.5
		c0.5-0.7,1.2-1.2,2-1.5c0.8-0.4,1.7-0.7,2.6-0.9c0.7-0.2,1.4-0.1,2.1,0.1c0.5,0.2,1,0.3,1.6,0.5c0.6,0.2,1.2,0.4,1.6,0.7
		c0.8,0.6,1.4,1.4,2.1,2.1c0.2,0.2,0.3,0.5,0.4,0.7c0.1,0.3,0.3,0.5,0.4,0.8c0.2,0.4,0.4,0.7,0.5,1.2c0.2,0.8,0.5,1.6,0.5,2.4
		c0,0.9,0.2,1.8,0,2.7c-0.4,1.7-0.7,3.4-1.7,4.9c-0.4,0.7-0.7,1.4-1.2,2c-0.6,0.8-1.2,1.7-2.1,2.3c-0.6,0.4-1.2,0.9-1.6,1.5
		c0,0.1-0.1,0.2-0.2,0.2c-0.7,0.1-1.2,0.7-1.8,1c-0.4,0.2-0.8,0.4-1.1,0.6c-0.1,0.1-0.1,0.6,0,0.7c0.7,0.6,1.4,1.1,2.1,1.6
		c0.5,0.3,1,0.5,1.5,1c0.2,0.2,0.7,0.2,1.1,0.4c1,0.5,2.1,0.9,3.1,1.2c0.7,0.2,1.4,0.5,2.1,0.6C536.4,24.9,537.3,24.9,538.2,24.9z
		 M546.4,22.1c0.2-0.2,0.3-0.4,0.4-0.6c0.6-0.6,0.4-1.8-0.4-2.2c-0.6-0.3-1.2-0.6-1.9-0.7c-0.9-0.2-1.7,0.2-2.5,0.5
		c-0.4,0.2-0.7,0.5-0.9,0.9c-0.5,1.2-0.4,2.4,0,3.6c0.1,0.2,0.4,0.3,0.6,0.3c1,0.1,1.9-0.4,2.7-0.8
		C545.1,22.8,545.8,22.4,546.4,22.1z"/>
	<path d="M589.7-1.2c0.1,0,0.2,0.1,0.3,0.1c0.6-0.4,1.3-0.8,2-0.8c0.8,0,1.6-0.2,2.3,0.4c0.2,0.2,0.6,0.2,0.9,0.4
		c0.2,0.1,0.5,0.2,0.6,0.4c0.7,1.1,1.4,2.1,1.6,3.4c0.1,0.6,0.2,1.2-0.1,1.8c-0.2,0.4-0.4,0.5-0.7,0.1c-0.4-0.5-0.7-1.1-1.1-1.7
		c-0.3-0.4-0.8-0.7-1-1.2c-0.2-0.5-0.6-0.5-0.9-0.7c-1-0.5-1.9-0.1-2.6,0.5c-0.8,0.6-1.6,1.3-2.2,2c-0.6,0.7-1,1.5-1.5,2.3
		c-0.2,0.4-0.5,0.7-0.6,1.1c-0.4,0.9-0.7,1.8-1.1,2.7c-0.6,1.4-1.2,2.7-1.7,4.1c-0.3,0.7-0.3,1.6-0.3,2.3c0,1.1,0,2.1,0.3,3.1
		c0.2,0.8,0.5,1.7,1.2,2.3c0.2,0.1,0.3,0.4,0.4,0.7c0.1,0.1,0.2,0.3,0.3,0.4c0.2,0.3,0.4,0.5,0.7,0.7c0.3,0.2,0.7,0.3,1,0.4
		c0.3,0.1,0.7,0.1,1,0.2c1.1,0.4,2.1,0,3.1-0.4c0.6-0.2,0.4-0.7,0.2-1c-0.3-0.5-0.7-0.8-1.1-1.2c-0.6-0.5-1.2-1-1.7-1.6
		c-0.4-0.5-0.4-1.5,0-1.8c0.3-0.2,0.4-0.6,0.7-0.7c0.4-0.1,0.8-0.2,1.2-0.3c0.3-0.1,0.7-0.2,1-0.3c1.1-0.4,2.3-0.5,3.4-0.6
		c1.2-0.1,2.4-0.3,3.6-0.3c1,0,2.1,0,3.1,0.1c0.6,0.1,1.1,0.3,1.6,0.5c0.5,0.2,1,0.4,1.4,0.5c0.1,0,0.2-0.1,0.4-0.2
		c0,1.5,1.4,1.5,2.3,2c2,1.1,3,2.8,2.3,5.1c-0.4,1.5-1.5,2.4-2.8,3.1c-0.5,0.2-1.1,0.2-1.6,0.4c-0.4,0.1-0.8,0.3-1.2,0.4
		c-1.1,0.4-2.1,0.1-3.2-0.1c-1.1-0.2-1.9-0.8-2.6-1.5c-0.8-0.7-1.2-1.7-1.2-2.7c0-0.8,0.1-1.7,0.4-2.6c0.2-0.6,0.7-1,1-1.5
		c0.1-0.2,0.1-0.5,0.2-0.8c-0.5,0-1,0-1.5,0c-0.6,0-1.2,0.1-1.8,0.2c-0.9,0.2-1.8,0.4-2.8,0.7c-0.2,0-0.3,0.3-0.3,0.5
		c0,0.2,0.1,0.4,0.2,0.5c0.8,0.6,1.3,1.4,1.4,2.4c0.1,1,0,1.8-0.9,2.6c-0.9,0.7-1.9,1.3-3,1.5c-0.9,0.1-1.9-0.1-2.8-0.2
		c-0.5-0.1-1.1-0.4-1.5-0.6c-1.3-0.8-2.6-1.6-3.4-3c-0.4-0.7-0.9-1.4-1.2-2.2c-0.2-0.6-0.3-1.4-0.3-2.1c-0.1-0.9-0.2-1.8-0.1-2.7
		c0.1-0.9,0.3-1.8,0.6-2.6c0.3-1,0.5-1.9,0.9-2.9c0.1-0.3,0.4-0.6,0.5-0.9c0.1-0.2,0.2-0.4,0.3-0.6c0.1-0.4,0.1-0.8,0.3-1.2
		c0.1-0.3,0.3-0.5,0.4-0.7c0.2-0.3,0.4-0.6,0.6-0.9c0.3-0.6,0.6-1.2,0.9-1.8c0.2-0.4,0.5-0.9,0.8-1.3c0.3-0.4,0.6-0.9,0.9-1.3
		c0.2-0.3,0.4-0.5,0.8-0.7c0.6-0.3,1-1,1.5-1.5C589.6-1,589.6-1.1,589.7-1.2z M608,22.1c0-0.1,0-0.2-0.1-0.3
		c-0.4-0.5-1.2-1.1-2.3-0.9c-0.7,0.1-1.5,0.5-2.3-0.2c-0.2-0.2-0.5-0.4-0.8-0.5c-0.2-0.1-0.7-0.2-0.7-0.1c-0.6,0.8-1.7,1.4-1.3,2.8
		c0.1,0.5,0.1,1,0.6,1.3c0,0,1.2,0.6,1.2,0.6c0.7,0,1.4,0.2,2-0.1c0.9-0.4,2.1-0.1,2.6-1.2c0,0,0.1,0,0.1,0
		C607.7,23.3,607.8,22.7,608,22.1z"/>
	<path d="M614.8,23.9c0.4-0.3,0.6-0.6,1-0.9c0.4-0.3,0.8-0.6,1.2-0.9c0.1-0.1,0.2-0.3,0.3-0.4c0.6-1.2,1.7-1.7,2.9-2.3
		c0.3-0.1,0.5-0.5,0.6-0.9c0.3-1,1-1.5,1.9-1.9c0.9-0.5,1.9-0.8,2.9-0.8c1.1,0,2.1,0.4,3.1,0.5c0.8,0,1.2,0.6,1.9,0.8
		c0.5,0.1,0.7,0.9,0.5,1.7c-0.2,1-0.8,1.9-1.7,2.4c-0.5,0.3-0.9,0.6-1.3,1c-0.4,0.4-0.9,0.7-1.4,1c-0.4,0.3-0.9,0.5-1.3,0.8
		c0,0.3,0.1,0.7,0.1,1c0.1,0.1,0.4,0.1,0.4,0.2c0.1,0.3,0.3,0.5,0.5,0.7c1.1,1,2.3,1.1,3.6,0.5c0.5-0.3,0.9-0.7,1.4-1
		c0.4-0.2,0.9-0.2,1.3-0.3c0.2,0,0.3,0,0.5,0c0.5,0.8,0.5,1.2-0.2,1.9c-0.3,0.3-0.6,0.7-0.9,1c-0.7,0.7-1.5,1.1-2.4,1.4
		c-0.4,0.1-0.9,0.3-1.3,0.3c-1.5,0.1-2.8-0.4-3.9-1.4c-0.6-0.6-1.3-1-1.9-1.5c-0.1-0.1-0.4-0.3-0.3-0.3c0.2-0.8-0.7-1-0.9-1.6
		c-0.3-0.6-0.6-1.1-1-1.6c-0.5-0.6-0.5-0.6-1,0.1c-0.3,0.4-0.7,0.7-1.1,1c-0.5,0.5-1,1-1.6,1.4c-0.5,0.5-1,1-1.8,1.2
		c-1,0.2-1.7,0-2.4-0.7c-0.9-0.9-1-2-0.8-3.1c0.1-0.9,0.2-1.9,0.3-2.8c0.1-1.1,0.2-2.2,0.4-3.3c0.3-1.7,0.5-3.5,0.8-5.2
		c0.2-1.3,0.5-2.7,0.7-4c0.1-1.1,0-2.2,0-3.4c0-0.1,0-0.2,0-0.3c0.1-0.4-0.1-0.5-0.4-0.6c-0.7-0.1-1-0.5-1.2-1.2
		c-0.2-0.7-0.3-1.4,0-2c0.2-0.7,1.2-1.2,1.9-0.9c0.5,0.2,1,0.6,1.4,1.1c0.8,1,0.9,2.1,0.8,3.3c0,0.5,0.1,1,0.1,1.5
		c-0.1,1.2-0.3,2.4-0.4,3.5c-0.1,0.7,0,1.4-0.1,2.1c-0.1,0.8-0.4,1.6-0.5,2.4c-0.2,1.1-0.3,2.2-0.4,3.3c-0.1,0.9-0.3,1.8-0.4,2.7
		c-0.1,1.1-0.1,2.3-0.2,3.4C614.4,23.1,614.6,23.4,614.8,23.9z M627.8,18.8c-0.8,0-1.6,0.1-2.3,0c-0.7-0.1-1.2,0.4-1.8,0.7
		c-0.1,0.1-0.2,0.4-0.2,0.6c0.1,0.4,0.2,0.7,0.3,1.1C624.8,21.2,627.7,19.5,627.8,18.8z"/>
	<path d="M644.7,23.8c-0.1-0.1-0.1-0.2-0.2-0.3c0,0,0-0.1,0-0.1c0.4-0.1,0.8,0,1.2-0.3c0.1-0.1,0.6,0,0.9,0.1
		c0.3,0.1,0.4,0.5,0.1,0.7c-0.3,0.3-0.6,0.6-0.9,1c-0.6,0.7-1.5,1-2.4,1.2c-0.8,0.1-1.6,0.4-2.4,0.4c-0.9,0-1.7-0.3-2.6-0.5
		c-0.7-0.1-1.1-0.6-1.5-1.1c-0.4-0.4-0.8-0.9-1.1-1.5c-0.3-0.7-0.1-1.3,0.1-1.9c0.2-0.6,0.6-1.1,0.9-1.7c0,0,0-0.1,0.1-0.1
		c0.7-0.7,1.4-1.4,2.2-2c0.6-0.5,1.2-0.9,1.8-1.4c0.3-0.3,0.8-0.6,1.3-0.8c0.7-0.2,1.4-0.5,2.1-0.7c0.5-0.2,1.1,0,1.3,0.5
		c0.3,0.6,0.1,1.5-0.4,1.8c-0.7,0.5-1.5,0.9-2.2,1.4c-0.7,0.5-1.5,0.8-2,1.5c-0.3,0.4-0.7,0.7-1.1,1.1c-0.3,0.3-0.4,1.2-0.1,1.5
		c0.5,0.5,1,1,1.8,0.9c0.5,0,0.9,0.2,1.4,0.2c0.3,0,0.6-0.1,0.9-0.1c0.2,0,0.4,0,0.6,0.1C644.3,23.6,644.4,23.7,644.7,23.8
		C644.6,23.8,644.6,23.8,644.7,23.8z"/>
	<path d="M576.9,10.7c-0.1,0.2-0.3,0.5-0.5,0.7c-0.2,0.3-0.5,0.6-0.7,0.8c-0.1,0.1-0.3,0.2-0.4,0.1c-0.9-0.3-1.8-0.6-2.3-1.6
		c-0.2-0.4,0-1.2,0.6-1.5c0.5-0.2,1-0.3,1.4-0.4C575.9,8.8,577,9.6,576.9,10.7z"/>
</g>
<g>
	<path d="M28.4,69.9c0.5-1.1,0.1-2.1,0-3.1c0-0.3-0.1-0.7,0-1c0.2-1.6,0.7-3.1,2.1-3.9c0.7-0.4,1.6-0.5,2.4-0.6c1.1,0,2.2,0,3.2,0.2
		c0.9,0.2,1.9,0.5,2.6,1.3c1,0.9,1.3,2.1,1.1,3.4c-0.1,0.6-0.6,1.2-1,1.7c-0.5,0.6-1,1.1-1.6,1.5c-0.4,0.3-1,0.4-1.5,0.7
		c-0.4,0.2-0.9,0.5-1.3,0.8c-0.1,0.1-0.1,0.3-0.1,0.5c0.1,0.1,0.3,0.2,0.4,0.3c0.7,0.1,1.4,0.3,2,0.3c0.4,0,0.7,0,1.1,0
		c0.7-0.1,1.5-0.2,2.1-0.6c0.5-0.3,1-0.3,1.4-0.8c0.3-0.4,0.8-0.6,1.2-0.9c0.8-0.5,1-1.3,1.3-2.1c0.2-0.7,0.5-1.4,0.8-2.1
		c0.2-0.4,1.2-0.7,1.5-0.6c0.5,0.3,0.7,0.7,0.7,1.3c0,0.7,0,1.5,0,2.2c0,0.6,0.3,1.1,0.7,1.6c0.4,0.5,0.9,0.2,1.3,0.3
		c1.2,0.3,2.1-0.4,2.9-1.1c0.9-0.8,1.8-1.6,2.7-2.5c0.3-0.3,0.4-0.8,0.7-1c0.3-0.3,0.8-0.5,1.2-0.7c0.4-0.1,0.9,0.4,0.9,0.9
		c0,1-0.2,2,0.1,3c0.1,0.4,0.3,0.8,0.5,1.2c0.4,0.7,1.1,0.5,1.7,0.5c0.4,0,0.9,0,1.1-0.5c0.1-0.2,0.5-0.2,0.7-0.3
		c0.5-0.2,0.9-0.5,1.3-0.8c0.4-0.2,0.8-0.5,1.2-0.6c0.4-0.2,0.7-0.6,1.1-0.7c0.9-0.4,1.6-1.2,2.7-1c0.6,0.1,1.2,0.8,1.2,1.4
		c0,0.8-0.3,1.5-0.7,2.2c0,0.1-0.2,0.1-0.3,0.1c-0.1,0-0.2-0.1-0.3-0.1c-0.5-0.2-0.7-1-1.4-0.6c-0.5,0.3-1,0.5-1.5,0.8
		c-0.5,0.3-1.1,0.7-1.6,1.1c-0.5,0.3-1.2,0.5-1.6,0.9c-0.4,0.4-0.8,0.6-1.3,0.7c-0.7,0.1-1.3,0.7-2,0.3c-0.6-0.3-1.3-0.7-1.8-1.1
		c-0.4-0.4-0.8-0.9-1.1-1.4c-0.2-0.3-0.2-0.7-0.3-1.1c0-0.1-0.1-0.1-0.1-0.2c-0.4,0.2-0.9,0.3-1,0.9c-0.1,0.3-0.6,0.5-0.8,0.7
		c-0.7,0.7-1.6,1.2-2.6,1.6c-1,0.4-2.1,0.5-3.1,0.3c-0.1,0-0.2-0.2-0.3-0.3c-0.2-0.1-0.5,0-0.7-0.2c-0.5-0.4-1.2-0.6-1.5-1.2
		c-0.1-0.1-0.4-0.1-0.6-0.1c-0.6,0.4-1.1,0.9-1.7,1.3c-0.7,0.4-1.3,1-2.2,1.1c-0.5,0-1,0.3-1.4,0.5c-0.8,0.3-1.5,0.4-2.4,0.1
		c-0.4-0.1-0.9-0.2-1.4-0.3c-0.5-0.1-1-0.2-1.4-0.4c-0.9-0.4-1.9-0.8-2.7-1.4c-0.6-0.4-1-0.3-1.7-0.3c-0.8,0-1.6,0.4-2.4,0
		c-0.6-0.3-1.5-0.1-2.3-0.2c-0.3,0-0.6-0.1-1-0.2c-0.7-0.2-1.4-0.4-2.1-0.7c-0.6-0.3-1.2-0.6-1.9-0.9c-1.1-0.5-2.1-1-3.2-1.5
		c-0.2-0.1-0.3-0.2-0.5-0.3c-0.9-0.5-1.8-1.1-2.6-1.6c-1-0.6-1.9-1.1-2.9-1.7c-0.4-0.2-0.6-1.1-0.4-1.5c0.3-0.5,0.8-0.7,1.5-0.6
		c0.2,0,0.3,0,0.5,0c0.6-0.1,1.3-0.1,1.9-0.3c0.3-0.1,0.6-0.3,0.9-0.4c0.4-0.1,0.9-0.2,1.2-0.4c0.7-0.4,1.4-1,2.1-1.5
		c0.1-0.1,0.3-0.1,0.5-0.1c0.4-0.7,0.7-1.5,1.6-1.9c0.2-0.1,0.2-0.4,0.4-0.6c0.3-0.3,0.6-0.6,0.8-0.9c0.2-0.2,0.2-0.5,0.3-0.7
		c0.4-0.8,0.7-1.7,1.1-2.6c0.5-1.3,0.7-2.6,0.5-4c-0.1-0.5,0-0.9-0.1-1.4c-0.1-0.5-0.3-0.9-0.5-1.4c-0.3-0.6-0.6-1.3-1-1.8
		c-0.5-0.6-1.1-1.1-2-1.4c-0.4-0.1-0.7-0.3-1.1-0.4c-1-0.3-1.9-0.4-2.9-0.1c-0.6,0.2-1.2,0.3-1.8,0.6c-0.4,0.2-0.8,0.6-1.1,0.9
		c-0.6,0.7-1.2,1.3-1.7,2.1C11,47,10.9,47.5,10.8,48c0,0.1,0,0.2,0,0.2c-1.1,1.4-1.2,3.2-1.8,4.8c-0.2,0.6-0.4,1.4-0.4,2
		c0,1.1-0.5,2.1-0.6,3.2C8,58.9,8,59.5,7.6,60c-0.1,0.1,0,0.5,0,0.7c-0.2,1.1-0.1,2.2,0.1,3.3c0.1,0.5,0.1,1,0,1.5
		c-0.1,0.5,0.1,1,0.2,1.4c0.2,0.4,0.2,0.9,0.3,1.4c0.3,1,0.7,1.8,1.4,2.5c0.1,0,0.1,0.1,0.2,0.1c0.9-0.2,0.9,0.6,1,1
		c0.1,0.6,0.3,1.3-0.3,1.9c-0.4,0.3-0.8,0.3-1.2,0.2c-0.8-0.3-1.5-0.9-1.9-1.5c-0.3-0.5-0.7-1-0.8-1.7c-0.4-1.2-1-2.4-0.9-3.7
		c0.1-0.9-0.1-1.7-0.2-2.6c-0.1-0.5,0-1,0.1-1.5c0-0.2,0-0.4,0-0.6c0-0.1-0.1-0.3-0.1-0.4c0.1-1.1,0.1-2.2,0.3-3.2
		c0.1-0.4,0.5-0.8,0.5-1.3c0-0.8,0.1-1.7,0.2-2.5c0.1-1,0.3-2,0.5-3c0.1-0.5,0.4-1,0.6-1.5c0.1-0.4,0.3-0.7,0.4-1.1
		c0.2-0.4,0.3-0.9,0.4-1.3c0.2-0.5,0.5-1.1,0.7-1.6c0.5-1.1,1-2.1,1.9-2.9c0.2-0.2,0.4-0.3,0.5-0.5c0.5-0.7,1.2-1.2,2-1.5
		c0.8-0.4,1.7-0.7,2.6-0.9c0.7-0.2,1.4-0.1,2.1,0.1c0.5,0.2,1,0.3,1.6,0.5c0.6,0.2,1.2,0.4,1.6,0.7c0.8,0.6,1.4,1.4,2.1,2.1
		c0.2,0.2,0.3,0.5,0.4,0.7c0.1,0.3,0.3,0.5,0.4,0.8c0.2,0.4,0.4,0.7,0.5,1.2c0.2,0.8,0.5,1.6,0.5,2.4c0,0.9,0.2,1.8,0,2.7
		c-0.4,1.7-0.7,3.4-1.7,4.9c-0.4,0.7-0.7,1.4-1.2,2c-0.6,0.8-1.2,1.7-2.1,2.3c-0.6,0.4-1.2,0.9-1.6,1.5c0,0.1-0.1,0.2-0.2,0.2
		c-0.7,0.1-1.2,0.7-1.8,1c-0.4,0.2-0.8,0.4-1.1,0.6c-0.1,0.1-0.1,0.6,0,0.7c0.7,0.6,1.4,1.1,2.1,1.6c0.5,0.3,1,0.5,1.5,1
		c0.2,0.2,0.7,0.2,1.1,0.4c1,0.5,2.1,0.9,3.1,1.2c0.7,0.2,1.4,0.5,2.1,0.6C26.6,69.9,27.5,69.9,28.4,69.9z M36.6,67.1
		c0.2-0.2,0.3-0.4,0.4-0.6c0.6-0.6,0.4-1.8-0.4-2.2c-0.6-0.3-1.2-0.6-1.9-0.7c-0.9-0.2-1.7,0.2-2.5,0.5c-0.4,0.2-0.7,0.5-0.9,0.9
		c-0.5,1.2-0.4,2.4,0,3.6c0.1,0.2,0.4,0.3,0.6,0.3c1,0.1,1.9-0.4,2.7-0.8C35.3,67.9,36,67.5,36.6,67.1z"/>
	<path d="M79.9,43.8c0.1,0,0.2,0.1,0.3,0.1c0.6-0.4,1.3-0.8,2-0.8c0.8,0,1.6-0.2,2.3,0.4c0.2,0.2,0.6,0.2,0.9,0.4
		c0.2,0.1,0.5,0.2,0.6,0.4c0.7,1.1,1.4,2.1,1.6,3.4c0.1,0.6,0.2,1.2-0.1,1.8c-0.2,0.4-0.4,0.5-0.7,0.1c-0.4-0.5-0.7-1.1-1.1-1.7
		c-0.3-0.4-0.8-0.7-1-1.2c-0.2-0.5-0.6-0.5-0.9-0.7c-1-0.5-1.9-0.1-2.6,0.5c-0.8,0.6-1.6,1.3-2.2,2c-0.6,0.7-1,1.5-1.5,2.3
		c-0.2,0.4-0.5,0.7-0.6,1.1c-0.4,0.9-0.7,1.8-1.1,2.7c-0.6,1.4-1.2,2.7-1.7,4.1c-0.3,0.7-0.3,1.6-0.3,2.3c0,1.1,0,2.1,0.3,3.1
		c0.2,0.8,0.5,1.7,1.2,2.3c0.2,0.1,0.3,0.4,0.4,0.7c0.1,0.1,0.2,0.3,0.3,0.4c0.2,0.3,0.4,0.5,0.7,0.7c0.3,0.2,0.7,0.3,1,0.4
		c0.3,0.1,0.7,0.1,1,0.2c1.1,0.4,2.1,0,3.1-0.4c0.6-0.2,0.4-0.7,0.2-1c-0.3-0.5-0.7-0.8-1.1-1.2c-0.6-0.5-1.2-1-1.7-1.6
		c-0.4-0.5-0.4-1.5,0-1.8c0.3-0.2,0.4-0.6,0.7-0.7c0.4-0.1,0.8-0.2,1.2-0.3c0.3-0.1,0.7-0.2,1-0.3c1.1-0.4,2.3-0.5,3.4-0.6
		c1.2-0.1,2.4-0.3,3.6-0.3c1,0,2.1,0,3.1,0.1c0.6,0.1,1.1,0.3,1.6,0.5c0.5,0.2,1,0.4,1.4,0.5c0.1,0,0.2-0.1,0.4-0.2
		c0,1.5,1.4,1.5,2.3,2c2,1.1,3,2.8,2.3,5.1c-0.4,1.5-1.5,2.4-2.8,3.1c-0.5,0.2-1.1,0.2-1.6,0.4c-0.4,0.1-0.8,0.3-1.2,0.4
		c-1.1,0.4-2.1,0.1-3.2-0.1c-1.1-0.2-1.9-0.8-2.6-1.5c-0.8-0.7-1.2-1.7-1.2-2.7c0-0.8,0.1-1.7,0.4-2.6c0.2-0.6,0.7-1,1-1.5
		c0.1-0.2,0.1-0.5,0.2-0.8c-0.5,0-1,0-1.5,0c-0.6,0-1.2,0.1-1.8,0.2c-0.9,0.2-1.8,0.4-2.8,0.7c-0.2,0-0.3,0.3-0.3,0.5
		c0,0.2,0.1,0.4,0.2,0.5c0.8,0.6,1.3,1.4,1.4,2.4c0.1,1,0,1.8-0.9,2.6c-0.9,0.7-1.9,1.3-3,1.5c-0.9,0.1-1.9-0.1-2.8-0.2
		c-0.5-0.1-1.1-0.4-1.5-0.6c-1.3-0.8-2.6-1.6-3.4-3c-0.4-0.7-0.9-1.4-1.2-2.2c-0.2-0.6-0.3-1.4-0.3-2.1c-0.1-0.9-0.2-1.8-0.1-2.7
		c0.1-0.9,0.3-1.8,0.6-2.6c0.3-1,0.5-1.9,0.9-2.9c0.1-0.3,0.4-0.6,0.5-0.9c0.1-0.2,0.2-0.4,0.3-0.6c0.1-0.4,0.1-0.8,0.3-1.2
		c0.1-0.3,0.3-0.5,0.4-0.7c0.2-0.3,0.4-0.6,0.6-0.9c0.3-0.6,0.6-1.2,0.9-1.8c0.2-0.4,0.5-0.9,0.8-1.3c0.3-0.4,0.6-0.9,0.9-1.3
		c0.2-0.3,0.4-0.5,0.8-0.7c0.6-0.3,1-1,1.5-1.5C79.8,44,79.8,43.9,79.9,43.8z M98.2,67.1c0-0.1,0-0.2-0.1-0.3
		c-0.4-0.5-1.2-1.1-2.3-0.9c-0.7,0.1-1.5,0.5-2.3-0.2c-0.2-0.2-0.5-0.4-0.8-0.5c-0.2-0.1-0.7-0.2-0.7-0.1c-0.6,0.8-1.7,1.4-1.3,2.8
		c0.1,0.5,0.1,1,0.6,1.3c0,0,1.2,0.6,1.2,0.6c0.7,0,1.4,0.2,2-0.1c0.9-0.4,2.1-0.1,2.6-1.2c0,0,0.1,0,0.1,0
		C97.9,68.3,97.9,67.7,98.2,67.1z"/>
	<path d="M105,68.9c0.4-0.3,0.6-0.6,1-0.9c0.4-0.3,0.8-0.6,1.2-0.9c0.1-0.1,0.2-0.3,0.3-0.4c0.6-1.2,1.7-1.7,2.9-2.3
		c0.3-0.1,0.5-0.5,0.6-0.9c0.3-1,1-1.5,1.9-1.9c0.9-0.5,1.9-0.8,2.9-0.8c1.1,0,2.1,0.4,3.1,0.5c0.8,0,1.2,0.6,1.9,0.8
		c0.5,0.1,0.7,0.9,0.5,1.7c-0.2,1-0.8,1.9-1.7,2.4c-0.5,0.3-0.9,0.6-1.3,1c-0.4,0.4-0.9,0.7-1.4,1c-0.4,0.3-0.9,0.5-1.3,0.8
		c0,0.3,0.1,0.7,0.1,1c0.1,0.1,0.4,0.1,0.4,0.2c0.1,0.3,0.3,0.5,0.5,0.7c1.1,1,2.3,1.1,3.6,0.5c0.5-0.3,0.9-0.7,1.4-1
		c0.4-0.2,0.9-0.2,1.3-0.3c0.2,0,0.3,0,0.5,0c0.5,0.8,0.5,1.2-0.2,1.9c-0.3,0.3-0.6,0.7-0.9,1c-0.7,0.7-1.5,1.1-2.4,1.4
		c-0.4,0.1-0.9,0.3-1.3,0.3c-1.5,0.1-2.8-0.4-3.9-1.4c-0.6-0.6-1.3-1-1.9-1.5c-0.1-0.1-0.4-0.3-0.3-0.3c0.2-0.8-0.7-1-0.9-1.6
		c-0.3-0.6-0.6-1.1-1-1.6c-0.5-0.6-0.5-0.6-1,0.1c-0.3,0.4-0.7,0.7-1.1,1c-0.5,0.5-1,1-1.6,1.4c-0.5,0.5-1,1-1.8,1.2
		c-1,0.2-1.7,0-2.4-0.7c-0.9-0.9-1-2-0.8-3.1c0.1-0.9,0.2-1.9,0.3-2.8c0.1-1.1,0.2-2.2,0.4-3.3c0.3-1.7,0.5-3.5,0.8-5.2
		c0.2-1.3,0.5-2.7,0.7-4c0.1-1.1,0-2.2,0-3.4c0-0.1,0-0.2,0-0.3c0.1-0.4-0.1-0.5-0.4-0.6c-0.7-0.1-1-0.5-1.2-1.2
		c-0.2-0.7-0.3-1.4,0-2c0.2-0.7,1.2-1.2,1.9-0.9c0.5,0.2,1,0.6,1.4,1.1c0.8,1,0.9,2.1,0.8,3.3c0,0.5,0.1,1,0.1,1.5
		c-0.1,1.2-0.3,2.4-0.4,3.5c-0.1,0.7,0,1.4-0.1,2.1c-0.1,0.8-0.4,1.6-0.5,2.4c-0.2,1.1-0.3,2.2-0.4,3.3c-0.1,0.9-0.3,1.8-0.4,2.7
		c-0.1,1.1-0.1,2.3-0.2,3.4C104.6,68.2,104.8,68.4,105,68.9z M117.9,63.8c-0.8,0-1.6,0.1-2.3,0c-0.7-0.1-1.2,0.4-1.8,0.7
		c-0.1,0.1-0.2,0.4-0.2,0.6c0.1,0.4,0.2,0.7,0.3,1.1C115,66.2,117.9,64.5,117.9,63.8z"/>
	<path d="M134.9,68.8c-0.1-0.1-0.1-0.2-0.2-0.3c0,0,0-0.1,0-0.1c0.4-0.1,0.8,0,1.2-0.3c0.1-0.1,0.6,0,0.9,0.1
		c0.3,0.1,0.4,0.5,0.1,0.7c-0.3,0.3-0.6,0.6-0.9,1c-0.6,0.7-1.5,1-2.4,1.2c-0.8,0.1-1.6,0.4-2.4,0.4c-0.9,0-1.7-0.3-2.6-0.5
		c-0.7-0.1-1.1-0.6-1.5-1.1c-0.4-0.4-0.8-0.9-1.1-1.5c-0.3-0.7-0.1-1.3,0.1-1.9c0.2-0.6,0.6-1.1,0.9-1.7c0,0,0-0.1,0.1-0.1
		c0.7-0.7,1.4-1.4,2.2-2c0.6-0.5,1.2-0.9,1.8-1.4c0.3-0.3,0.8-0.6,1.3-0.8c0.7-0.2,1.4-0.5,2.1-0.7c0.5-0.2,1.1,0,1.3,0.5
		c0.3,0.6,0.1,1.5-0.4,1.8c-0.7,0.5-1.5,0.9-2.2,1.4c-0.7,0.5-1.5,0.8-2,1.5c-0.3,0.4-0.7,0.7-1.1,1.1c-0.3,0.3-0.4,1.2-0.1,1.5
		c0.5,0.5,1,1,1.8,0.9c0.5,0,0.9,0.2,1.4,0.2c0.3,0,0.6-0.1,0.9-0.1c0.2,0,0.4,0,0.6,0.1C134.5,68.6,134.6,68.8,134.9,68.8
		C134.8,68.8,134.8,68.8,134.9,68.8z"/>
	<path d="M67.1,55.7c-0.1,0.2-0.3,0.5-0.5,0.7c-0.2,0.3-0.5,0.6-0.7,0.8c-0.1,0.1-0.3,0.2-0.4,0.1c-0.9-0.3-1.8-0.6-2.3-1.6
		c-0.2-0.4,0-1.2,0.6-1.5c0.5-0.2,1-0.3,1.4-0.4C66.1,53.8,67.1,54.6,67.1,55.7z"/>
</g>
<g>
	<path d="M-14.9-45.4c0.7-1.9,0.9-4,0.6-6.1c-0.4-3.2-0.8-6.4-1.2-9.5c-0.1-0.9-0.3-1.8-0.4-2.8c-0.2-0.6-1.6-0.3-1.6-0.3
		s-1.2,0.3-4.4,0.7c-0.8,0.2-1.7,0.1-2.5-0.3c-0.2-0.1-0.3-0.1-0.5-0.1c-1.3-0.2-2.6-0.3-3.9-0.2c-2.3,0-4.5,0-6.8,0
		c-1.9,0-3.8,0.1-5.7,0.1c-2.2,0-4.4,0-6.6,0h-9.4c-2.8,0-5.6,0-8.5,0c-0.5,0-0.9,0.1-1.5,0.1c0,0.8,0,1.6,0,2.3c0,1.2,0,2.4,0,3.5
		c0,0.5-0.4,1-1,1.1c0,0-1.5,0.2-2.1,0.4c-1.1,0.2-3.6,0.5-4.8,0.7l0,0l-0.9,0.2c0,0,0.2,1.1,0.2,1.5c0.4,2.6,0.8,5.2,1.2,7.7
		c0.3,1.7,0.6,3.4,0.9,5.1c0.8,3.2,3.4,5.7,6.6,6.5c0.1,5,0,1.1,0,16.2c5.5,0,16.6-0.1,16.6-0.1l0.1-9.6c0,0,0.1-4.4,0-6.6
		c0-0.8,0.1-0.9,0.9-1.1c0.8-0.2,1.5-0.3,2.2-0.4l8.8-1.3c0,0,1.1-0.1,1,0.3c0.1,1.4,0.2,2.8,0.3,4.3c0,0.3,0.1,0.6,0.2,0.9
		c0.2,0.4,0.4,0.9,0.4,1.5c0.2,2.4,0.3,5.9,0.5,8.3c0.1,1,0.1,2,0.3,3c0.1,0.8,0.1,1.2,0.7,1c3.4,0,7,0,10.4,0c1.9,0,3.9,0,5.8,0
		c0-0.1,0.1-0.1,0.1-0.2c0-0.1,0-0.2,0-0.3c-0.7-2.1-1-4.2-1-6.4c0-1.1-0.1-6.2-0.3-7.8c-0.4-2.4-1.7-4.5-3.6-6
		c-0.2-0.1-0.3-0.2-0.5-0.4c1-0.2,1.8-0.4,2.7-0.5C-17.1-41.3-15.7-43.7-14.9-45.4z M-31.7-39.4c-3.9,0.6-7.9,1.1-11.9,1.6
		l-10.2,1.3l-7.7,1c-1.5,0.3-3.1,0.3-4.6,0.2c-3.2-0.5-5.8-2.8-6.6-6c-0.6-2.2-1-4.4-1.3-6.6c-0.3-1.7-0.5-3.3-0.8-5
		c-0.1-0.6-0.2-1.7-0.3-2.4c2.8-0.4,7.6-1.4,10.2-1.7c2.2-0.3,4.5-0.5,6.8-0.9c2.8-0.4,5.7-0.8,8.5-1.2c2.9-0.4,5.4-0.7,8.1-1.1
		l9.4-1.3l7.2-1l7.5-1c0.6-0.1,0.7,0,0.8,0.6c0,0.3,0.1,0.5,0.1,0.8c0.4,2.6,0.7,5.3,1,7.9c0.4,2.1,0.5,4.2,0.3,6.3
		c-0.2,2.3-1.6,4.4-3.6,5.6c-1.4,0.8-2.9,1.3-4.4,1.6C-26.1-40.2-28.9-39.8-31.7-39.4z"/>
	<path d="M-67.5-45.7l47.6-3.1c0.1,0.3,0.1,0.6,0.1,0.8c0,0.7,0,1.5-0.1,2.2c-0.2,1.7-1.6,3-3.3,3c-2.8,0.2-5.5,0.3-8.3,0.5
		l-13.3,0.9l-10.7,0.7c-2.4,0.2-4.9,0.3-7.3,0.5c-0.7,0-1.4,0-2.1-0.2c-1.1-0.1-2.1-1-2.2-2.2C-67.3-43.6-67.4-44.5-67.5-45.7z
		 M-66.3-44.7c0,0.3,0,0.5,0,0.7c0.1,0.4,0.1,0.8,0.2,1.2c0.2,1,1.1,1.8,2.2,1.7c0.8,0,1.6,0,2.4-0.1l11.6-0.7l8.1-0.5l7.1-0.4
		l7.4-0.5c1.3-0.1,2.6-0.2,4-0.3c1,0,1.9-0.6,2.3-1.6c0.2-0.7,0.3-1.5,0.1-2.3C-21.8-47.8-65.1-45-66.3-44.7z"/>
	<ellipse transform="matrix(0.1414 -0.9899 0.9899 0.1414 13.5706 -95.2984)" cx="-48.2" cy="-55.5" rx="2" ry="2.4"/>
	<ellipse transform="matrix(0.1414 -0.9899 0.9899 0.1414 29.2537 -69.6392)" cx="-25.5" cy="-51.7" rx="2" ry="2.4"/>
	<path class="st0" d="M-35.4-18.6h19c4.1,0,7.3-3.3,7.3-7.3c0,0,0,0,0,0v-55.3c0-4.1-3.3-7.3-7.3-7.3h-55.3c-4.1,0-7.3,3.3-7.3,7.3
		v55.3c0,4,3.3,7.3,7.3,7.3c0,0,0,0,0,0h20.6"/>
</g>
<g>
	<path d="M28.4-24.3c0.5-1.1,0.1-2.1,0-3.1c0-0.3-0.1-0.7,0-1c0.2-1.6,0.7-3.1,2.1-3.9c0.7-0.4,1.6-0.5,2.4-0.6c1.1,0,2.2,0,3.2,0.2
		c0.9,0.2,1.9,0.5,2.6,1.3c1,0.9,1.3,2.1,1.1,3.4c-0.1,0.6-0.6,1.2-1,1.7c-0.5,0.6-1,1.1-1.6,1.5c-0.4,0.3-1,0.4-1.5,0.7
		c-0.4,0.2-0.9,0.5-1.3,0.8c-0.1,0.1-0.1,0.3-0.1,0.5c0.1,0.1,0.3,0.2,0.4,0.3c0.7,0.1,1.4,0.3,2,0.3c0.4,0,0.7,0,1.1,0
		c0.7-0.1,1.5-0.2,2.1-0.6c0.5-0.3,1-0.3,1.4-0.8c0.3-0.4,0.8-0.6,1.2-0.9c0.8-0.5,1-1.3,1.3-2.1c0.2-0.7,0.5-1.4,0.8-2.1
		c0.2-0.4,1.2-0.7,1.5-0.6C46.8-29,47-28.6,47-28c0,0.7,0,1.5,0,2.2c0,0.6,0.3,1.1,0.7,1.6c0.4,0.5,0.9,0.2,1.3,0.3
		c1.2,0.3,2.1-0.4,2.9-1.1c0.9-0.8,1.8-1.6,2.7-2.5c0.3-0.3,0.4-0.8,0.7-1c0.3-0.3,0.8-0.5,1.2-0.7c0.4-0.1,0.9,0.4,0.9,0.9
		c0,1-0.2,2,0.1,3c0.1,0.4,0.3,0.8,0.5,1.2c0.4,0.7,1.1,0.5,1.7,0.5c0.4,0,0.9,0,1.1-0.5c0.1-0.2,0.5-0.2,0.7-0.3
		c0.5-0.2,0.9-0.5,1.3-0.8c0.4-0.2,0.8-0.5,1.2-0.6c0.4-0.2,0.7-0.6,1.1-0.7c0.9-0.4,1.6-1.2,2.7-1c0.6,0.1,1.2,0.8,1.2,1.4
		c0,0.8-0.3,1.5-0.7,2.2c0,0.1-0.2,0.1-0.3,0.1c-0.1,0-0.2-0.1-0.3-0.1c-0.5-0.2-0.7-1-1.4-0.6c-0.5,0.3-1,0.5-1.5,0.8
		c-0.5,0.3-1.1,0.7-1.6,1.1c-0.5,0.3-1.2,0.5-1.6,0.9c-0.4,0.4-0.8,0.6-1.3,0.7c-0.7,0.1-1.3,0.7-2,0.3c-0.6-0.3-1.3-0.7-1.8-1.1
		c-0.4-0.4-0.8-0.9-1.1-1.4c-0.2-0.3-0.2-0.7-0.3-1.1c0-0.1-0.1-0.1-0.1-0.2c-0.4,0.2-0.9,0.3-1,0.9c-0.1,0.3-0.6,0.5-0.8,0.7
		c-0.7,0.7-1.6,1.2-2.6,1.6c-1,0.4-2.1,0.5-3.1,0.3c-0.1,0-0.2-0.2-0.3-0.3c-0.2-0.1-0.5,0-0.7-0.2c-0.5-0.4-1.2-0.6-1.5-1.2
		c-0.1-0.1-0.4-0.1-0.6-0.1c-0.6,0.4-1.1,0.9-1.7,1.3c-0.7,0.4-1.3,1-2.2,1.1c-0.5,0-1,0.3-1.4,0.5c-0.8,0.3-1.5,0.4-2.4,0.1
		c-0.4-0.1-0.9-0.2-1.4-0.3c-0.5-0.1-1-0.2-1.4-0.4c-0.9-0.4-1.9-0.8-2.7-1.4c-0.6-0.4-1-0.3-1.7-0.3c-0.8,0-1.6,0.4-2.4,0
		c-0.6-0.3-1.5-0.1-2.3-0.2c-0.3,0-0.6-0.1-1-0.2c-0.7-0.2-1.4-0.4-2.1-0.7c-0.6-0.3-1.2-0.6-1.9-0.9c-1.1-0.5-2.1-1-3.2-1.5
		c-0.2-0.1-0.3-0.2-0.5-0.3c-0.9-0.5-1.8-1.1-2.6-1.6c-1-0.6-1.9-1.1-2.9-1.7c-0.4-0.2-0.6-1.1-0.4-1.5c0.3-0.5,0.8-0.7,1.5-0.6
		c0.2,0,0.3,0,0.5,0c0.6-0.1,1.3-0.1,1.9-0.3c0.3-0.1,0.6-0.3,0.9-0.4c0.4-0.1,0.9-0.2,1.2-0.4c0.7-0.4,1.4-1,2.1-1.5
		c0.1-0.1,0.3-0.1,0.5-0.1c0.4-0.7,0.7-1.5,1.6-1.9c0.2-0.1,0.2-0.4,0.4-0.6c0.3-0.3,0.6-0.6,0.8-0.9c0.2-0.2,0.2-0.5,0.3-0.7
		c0.4-0.8,0.7-1.7,1.1-2.6c0.5-1.3,0.7-2.6,0.5-4c-0.1-0.5,0-0.9-0.1-1.4c-0.1-0.5-0.3-0.9-0.5-1.4c-0.3-0.6-0.6-1.3-1-1.8
		c-0.5-0.6-1.1-1.1-2-1.4c-0.4-0.1-0.7-0.3-1.1-0.4c-1-0.3-1.9-0.4-2.9-0.1c-0.6,0.2-1.2,0.3-1.8,0.6c-0.4,0.2-0.8,0.6-1.1,0.9
		c-0.6,0.7-1.2,1.3-1.7,2.1c-0.3,0.4-0.3,0.9-0.5,1.4c0,0.1,0,0.2,0,0.2c-1.1,1.4-1.2,3.2-1.8,4.8c-0.2,0.6-0.4,1.4-0.4,2
		C8.6-38,8.1-37,8-35.9c0,0.6-0.1,1.2-0.4,1.7c-0.1,0.1,0,0.5,0,0.7c-0.2,1.1-0.1,2.2,0.1,3.3c0.1,0.5,0.1,1,0,1.5
		c-0.1,0.5,0.1,1,0.2,1.4c0.2,0.4,0.2,0.9,0.3,1.4c0.3,1,0.7,1.8,1.4,2.5c0.1,0,0.1,0.1,0.2,0.1c0.9-0.2,0.9,0.6,1,1
		c0.1,0.6,0.3,1.3-0.3,1.9c-0.4,0.3-0.8,0.3-1.2,0.2c-0.8-0.3-1.5-0.9-1.9-1.5c-0.3-0.5-0.7-1-0.8-1.7c-0.4-1.2-1-2.4-0.9-3.7
		c0.1-0.9-0.1-1.7-0.2-2.6c-0.1-0.5,0-1,0.1-1.5c0-0.2,0-0.4,0-0.6c0-0.1-0.1-0.3-0.1-0.4c0.1-1.1,0.1-2.2,0.3-3.2
		c0.1-0.4,0.5-0.8,0.5-1.3c0-0.8,0.1-1.7,0.2-2.5c0.1-1,0.3-2,0.5-3c0.1-0.5,0.4-1,0.6-1.5c0.1-0.4,0.3-0.7,0.4-1.1
		c0.2-0.4,0.3-0.9,0.4-1.3c0.2-0.5,0.5-1.1,0.7-1.6c0.5-1.1,1-2.1,1.9-2.9c0.2-0.2,0.4-0.3,0.5-0.5c0.5-0.7,1.2-1.2,2-1.5
		c0.8-0.4,1.7-0.7,2.6-0.9c0.7-0.2,1.4-0.1,2.1,0.1c0.5,0.2,1,0.3,1.6,0.5c0.6,0.2,1.2,0.4,1.6,0.7c0.8,0.6,1.4,1.4,2.1,2.1
		c0.2,0.2,0.3,0.5,0.4,0.7c0.1,0.3,0.3,0.5,0.4,0.8c0.2,0.4,0.4,0.7,0.5,1.2c0.2,0.8,0.5,1.6,0.5,2.4c0,0.9,0.2,1.8,0,2.7
		c-0.4,1.7-0.7,3.4-1.7,4.9c-0.4,0.7-0.7,1.4-1.2,2c-0.6,0.8-1.2,1.7-2.1,2.3c-0.6,0.4-1.2,0.9-1.6,1.5c0,0.1-0.1,0.2-0.2,0.2
		c-0.7,0.1-1.2,0.7-1.8,1c-0.4,0.2-0.8,0.4-1.1,0.6c-0.1,0.1-0.1,0.6,0,0.7c0.7,0.6,1.4,1.1,2.1,1.6c0.5,0.3,1,0.5,1.5,1
		c0.2,0.2,0.7,0.2,1.1,0.4c1,0.5,2.1,0.9,3.1,1.2c0.7,0.2,1.4,0.5,2.1,0.6C26.6-24.3,27.5-24.3,28.4-24.3z M36.6-27.1
		c0.2-0.2,0.3-0.4,0.4-0.6c0.6-0.6,0.4-1.8-0.4-2.2c-0.6-0.3-1.2-0.6-1.9-0.7c-0.9-0.2-1.7,0.2-2.5,0.5c-0.4,0.2-0.7,0.5-0.9,0.9
		c-0.5,1.2-0.4,2.4,0,3.6c0.1,0.2,0.4,0.3,0.6,0.3c1,0.1,1.9-0.4,2.7-0.8C35.3-26.4,36-26.8,36.6-27.1z"/>
	<path d="M79.9-50.4c0.1,0,0.2,0.1,0.3,0.1c0.6-0.4,1.3-0.8,2-0.8c0.8,0,1.6-0.2,2.3,0.4c0.2,0.2,0.6,0.2,0.9,0.4
		c0.2,0.1,0.5,0.2,0.6,0.4c0.7,1.1,1.4,2.1,1.6,3.4c0.1,0.6,0.2,1.2-0.1,1.8c-0.2,0.4-0.4,0.5-0.7,0.1c-0.4-0.5-0.7-1.1-1.1-1.7
		c-0.3-0.4-0.8-0.7-1-1.2c-0.2-0.5-0.6-0.5-0.9-0.7c-1-0.5-1.9-0.1-2.6,0.5c-0.8,0.6-1.6,1.3-2.2,2c-0.6,0.7-1,1.5-1.5,2.3
		c-0.2,0.4-0.5,0.7-0.6,1.1c-0.4,0.9-0.7,1.8-1.1,2.7c-0.6,1.4-1.2,2.7-1.7,4.1c-0.3,0.7-0.3,1.6-0.3,2.3c0,1.1,0,2.1,0.3,3.1
		c0.2,0.8,0.5,1.7,1.2,2.3c0.2,0.1,0.3,0.4,0.4,0.7c0.1,0.1,0.2,0.3,0.3,0.4c0.2,0.3,0.4,0.5,0.7,0.7c0.3,0.2,0.7,0.3,1,0.4
		c0.3,0.1,0.7,0.1,1,0.2c1.1,0.4,2.1,0,3.1-0.4c0.6-0.2,0.4-0.7,0.2-1c-0.3-0.5-0.7-0.8-1.1-1.2c-0.6-0.5-1.2-1-1.7-1.6
		c-0.4-0.5-0.4-1.5,0-1.8c0.3-0.2,0.4-0.6,0.7-0.7c0.4-0.1,0.8-0.2,1.2-0.3c0.3-0.1,0.7-0.2,1-0.3c1.1-0.4,2.3-0.5,3.4-0.6
		c1.2-0.1,2.4-0.3,3.6-0.3c1,0,2.1,0,3.1,0.1c0.6,0.1,1.1,0.3,1.6,0.5c0.5,0.2,1,0.4,1.4,0.5c0.1,0,0.2-0.1,0.4-0.2
		c0,1.5,1.4,1.5,2.3,2c2,1.1,3,2.8,2.3,5.1c-0.4,1.5-1.5,2.4-2.8,3.1c-0.5,0.2-1.1,0.2-1.6,0.4c-0.4,0.1-0.8,0.3-1.2,0.4
		c-1.1,0.4-2.1,0.1-3.2-0.1c-1.1-0.2-1.9-0.8-2.6-1.5c-0.8-0.7-1.2-1.7-1.2-2.7c0-0.8,0.1-1.7,0.4-2.6c0.2-0.6,0.7-1,1-1.5
		c0.1-0.2,0.1-0.5,0.2-0.8c-0.5,0-1,0-1.5,0c-0.6,0-1.2,0.1-1.8,0.2c-0.9,0.2-1.8,0.4-2.8,0.7c-0.2,0-0.3,0.3-0.3,0.5
		c0,0.2,0.1,0.4,0.2,0.5c0.8,0.6,1.3,1.4,1.4,2.4c0.1,1,0,1.8-0.9,2.6c-0.9,0.7-1.9,1.3-3,1.5c-0.9,0.1-1.9-0.1-2.8-0.2
		c-0.5-0.1-1.1-0.4-1.5-0.6c-1.3-0.8-2.6-1.6-3.4-3c-0.4-0.7-0.9-1.4-1.2-2.2c-0.2-0.6-0.3-1.4-0.3-2.1c-0.1-0.9-0.2-1.8-0.1-2.7
		c0.1-0.9,0.3-1.8,0.6-2.6c0.3-1,0.5-1.9,0.9-2.9c0.1-0.3,0.4-0.6,0.5-0.9c0.1-0.2,0.2-0.4,0.3-0.6c0.1-0.4,0.1-0.8,0.3-1.2
		c0.1-0.3,0.3-0.5,0.4-0.7c0.2-0.3,0.4-0.6,0.6-0.9c0.3-0.6,0.6-1.2,0.9-1.8c0.2-0.4,0.5-0.9,0.8-1.3c0.3-0.4,0.6-0.9,0.9-1.3
		c0.2-0.3,0.4-0.5,0.8-0.7c0.6-0.3,1-1,1.5-1.5C79.8-50.2,79.8-50.3,79.9-50.4z M98.2-27.1c0-0.1,0-0.2-0.1-0.3
		c-0.4-0.5-1.2-1.1-2.3-0.9c-0.7,0.1-1.5,0.5-2.3-0.2c-0.2-0.2-0.5-0.4-0.8-0.5c-0.2-0.1-0.7-0.2-0.7-0.1c-0.6,0.8-1.7,1.4-1.3,2.8
		c0.1,0.5,0.1,1,0.6,1.3c0,0,1.2,0.6,1.2,0.6c0.7,0,1.4,0.2,2-0.1c0.9-0.4,2.1-0.1,2.6-1.2c0,0,0.1,0,0.1,0
		C97.9-25.9,97.9-26.5,98.2-27.1z"/>
	<path d="M105-25.3c0.4-0.3,0.6-0.6,1-0.9c0.4-0.3,0.8-0.6,1.2-0.9c0.1-0.1,0.2-0.3,0.3-0.4c0.6-1.2,1.7-1.7,2.9-2.3
		c0.3-0.1,0.5-0.5,0.6-0.9c0.3-1,1-1.5,1.9-1.9c0.9-0.5,1.9-0.8,2.9-0.8c1.1,0,2.1,0.4,3.1,0.5c0.8,0,1.2,0.6,1.9,0.8
		c0.5,0.1,0.7,0.9,0.5,1.7c-0.2,1-0.8,1.9-1.7,2.4c-0.5,0.3-0.9,0.6-1.3,1c-0.4,0.4-0.9,0.7-1.4,1c-0.4,0.3-0.9,0.5-1.3,0.8
		c0,0.3,0.1,0.7,0.1,1c0.1,0.1,0.4,0.1,0.4,0.2c0.1,0.3,0.3,0.5,0.5,0.7c1.1,1,2.3,1.1,3.6,0.5c0.5-0.3,0.9-0.7,1.4-1
		c0.4-0.2,0.9-0.2,1.3-0.3c0.2,0,0.3,0,0.5,0c0.5,0.8,0.5,1.2-0.2,1.9c-0.3,0.3-0.6,0.7-0.9,1c-0.7,0.7-1.5,1.1-2.4,1.4
		c-0.4,0.1-0.9,0.3-1.3,0.3c-1.5,0.1-2.8-0.4-3.9-1.4c-0.6-0.6-1.3-1-1.9-1.5c-0.1-0.1-0.4-0.3-0.3-0.3c0.2-0.8-0.7-1-0.9-1.6
		c-0.3-0.6-0.6-1.1-1-1.6c-0.5-0.6-0.5-0.6-1,0.1c-0.3,0.4-0.7,0.7-1.1,1c-0.5,0.5-1,1-1.6,1.4c-0.5,0.5-1,1-1.8,1.2
		c-1,0.2-1.7,0-2.4-0.7c-0.9-0.9-1-2-0.8-3.1c0.1-0.9,0.2-1.9,0.3-2.8c0.1-1.1,0.2-2.2,0.4-3.3c0.3-1.7,0.5-3.5,0.8-5.2
		c0.2-1.3,0.5-2.7,0.7-4c0.1-1.1,0-2.2,0-3.4c0-0.1,0-0.2,0-0.3c0.1-0.4-0.1-0.5-0.4-0.6c-0.7-0.1-1-0.5-1.2-1.2
		c-0.2-0.7-0.3-1.4,0-2c0.2-0.7,1.2-1.2,1.9-0.9c0.5,0.2,1,0.6,1.4,1.1c0.8,1,0.9,2.1,0.8,3.3c0,0.5,0.1,1,0.1,1.5
		c-0.1,1.2-0.3,2.4-0.4,3.5c-0.1,0.7,0,1.4-0.1,2.1c-0.1,0.8-0.4,1.6-0.5,2.4c-0.2,1.1-0.3,2.2-0.4,3.3c-0.1,0.9-0.3,1.8-0.4,2.7
		c-0.1,1.1-0.1,2.3-0.2,3.4C104.6-26.1,104.8-25.8,105-25.3z M117.9-30.4c-0.8,0-1.6,0.1-2.3,0c-0.7-0.1-1.2,0.4-1.8,0.7
		c-0.1,0.1-0.2,0.4-0.2,0.6c0.1,0.4,0.2,0.7,0.3,1.1C115-28,117.9-29.7,117.9-30.4z"/>
	<path d="M134.9-25.4c-0.1-0.1-0.1-0.2-0.2-0.3c0,0,0-0.1,0-0.1c0.4-0.1,0.8,0,1.2-0.3c0.1-0.1,0.6,0,0.9,0.1
		c0.3,0.1,0.4,0.5,0.1,0.7c-0.3,0.3-0.6,0.6-0.9,1c-0.6,0.7-1.5,1-2.4,1.2c-0.8,0.1-1.6,0.4-2.4,0.4c-0.9,0-1.7-0.3-2.6-0.5
		c-0.7-0.1-1.1-0.6-1.5-1.1c-0.4-0.4-0.8-0.9-1.1-1.5c-0.3-0.7-0.1-1.3,0.1-1.9c0.2-0.6,0.6-1.1,0.9-1.7c0,0,0-0.1,0.1-0.1
		c0.7-0.7,1.4-1.4,2.2-2c0.6-0.5,1.2-0.9,1.8-1.4c0.3-0.3,0.8-0.6,1.3-0.8c0.7-0.2,1.4-0.5,2.1-0.7c0.5-0.2,1.1,0,1.3,0.5
		c0.3,0.6,0.1,1.5-0.4,1.8c-0.7,0.5-1.5,0.9-2.2,1.4c-0.7,0.5-1.5,0.8-2,1.5c-0.3,0.4-0.7,0.7-1.1,1.1c-0.3,0.3-0.4,1.2-0.1,1.5
		c0.5,0.5,1,1,1.8,0.9c0.5,0,0.9,0.2,1.4,0.2c0.3,0,0.6-0.1,0.9-0.1c0.2,0,0.4,0,0.6,0.1C134.5-25.6,134.6-25.5,134.9-25.4
		C134.8-25.4,134.8-25.4,134.9-25.4z"/>
	<path d="M67.1-38.5c-0.1,0.2-0.3,0.5-0.5,0.7c-0.2,0.3-0.5,0.6-0.7,0.8c-0.1,0.1-0.3,0.2-0.4,0.1c-0.9-0.3-1.8-0.6-2.3-1.6
		c-0.2-0.4,0-1.2,0.6-1.5c0.5-0.2,1-0.3,1.4-0.4C66.1-40.4,67.1-39.6,67.1-38.5z"/>
</g>
</svg>
