<svg width="200px" id="Layer_1" data-name="Layer 1" xmlns="http://www.w3.org/2000/svg" viewBox="0 0 186.36 64.84"><defs><style>.cls-1{fill:none;stroke:#000;stroke-linecap:square;stroke-miterlimit:10;}</style></defs><path d="M61.72,43.05a10.86,10.86,0,0,0,.52-5.54c-.4-2.9-.76-5.8-1.14-8.7-.11-.84-.25-1.68-.38-2.52-.14-.53-1.44-.3-1.44-.3s-1.11.26-4,.63A3.19,3.19,0,0,1,53,26.39a1.48,1.48,0,0,0-.48-.13A14.37,14.37,0,0,0,49,26.05c-2.07,0-4.14,0-6.21,0-1.73,0-3.47.05-5.21.05-2,0-4,0-6,0l-8.61,0c-2.57,0-5.14,0-7.71,0-.43,0-.86.07-1.33.11,0,.77,0,1.46,0,2.14,0,1.08,0,2.15,0,3.23a1.1,1.1,0,0,1-.89,1s-1.35.21-1.95.32c-1,.18-3.31.46-4.34.65h0l-.84.2s.15,1,.21,1.41c.35,2.35.69,4.7,1.06,7,.25,1.55.51,3.1.85,4.64a8.14,8.14,0,0,0,6,5.89c.08,4.52,0,1,0,14.81,5,0,15.1-.12,15.1-.12l.05-8.76s.06-4,0-6c0-.73.13-.84.85-1s1.34-.26,2-.36l8-1.17s1-.13.94.23c.09,1.29.16,2.59.25,3.88a1.9,1.9,0,0,0,.17.79,2.83,2.83,0,0,1,.34,1.33c.15,2.17.3,5.4.45,7.57.06.91.11,1.82.23,2.73.08.69.07,1.06.67.88,3.07,0,6.42,0,9.48,0,1.76,0,3.53,0,5.28,0,0-.08.07-.13.08-.18a.48.48,0,0,0,0-.24,16.21,16.21,0,0,1-.89-5.86c0-1-.05-5.65-.27-7.16a9,9,0,0,0-3.3-5.43,3.15,3.15,0,0,1-.43-.35c.88-.17,1.66-.38,2.45-.45C59.69,46.81,61,44.62,61.72,43.05ZM46.37,48.56c-3.6.51-7.22,1-10.83,1.46l-9.27,1.23-7.06.92a16.06,16.06,0,0,1-4.21.14,7.27,7.27,0,0,1-6-5.43,40.85,40.85,0,0,1-1.15-6c-.23-1.52-.48-3-.7-4.57-.07-.54-.21-1.51-.3-2.16,2.54-.38,6.92-1.25,9.26-1.57,2.05-.28,4.11-.5,6.16-.79,2.59-.36,5.17-.77,7.77-1.14s4.92-.65,7.39-1L46,28.43l6.56-.88,6.81-.91c.53-.06.61,0,.71.55,0,.24.06.49.09.74.32,2.41.64,4.81.94,7.22a24.25,24.25,0,0,1,.29,5.77A6.56,6.56,0,0,1,58.1,46a11.19,11.19,0,0,1-4.05,1.42Q50.23,48,46.37,48.56Z" transform="translate(-2.65 -3.21)"/><path d="M13.73,42.8,57.12,40a6.32,6.32,0,0,1,.11.76,14.36,14.36,0,0,1-.08,2,3,3,0,0,1-3,2.7c-2.52.17-5,.31-7.57.47l-12.16.78-9.78.63c-2.22.14-4.44.31-6.66.42a7.88,7.88,0,0,1-1.88-.16,2.3,2.3,0,0,1-2-2C13.94,44.74,13.86,43.84,13.73,42.8Zm1.13.89c0,.23,0,.43,0,.61.05.36.13.7.21,1.05a1.9,1.9,0,0,0,2,1.55c.74,0,1.48,0,2.22-.07l10.61-.65,7.4-.43,6.5-.39,6.73-.47c1.21-.09,2.41-.16,3.62-.28a2.3,2.3,0,0,0,2.11-1.46,4.34,4.34,0,0,0,.12-2.09C55.41,40.91,15.94,43.41,14.86,43.69Z" transform="translate(-2.65 -3.21)"/><ellipse cx="31.37" cy="33.88" rx="1.83" ry="2.18" transform="translate(-9.25 56.93) rotate(-81.87)"/><ellipse cx="52.02" cy="37.33" rx="1.83" ry="2.18" transform="translate(5.06 80.34) rotate(-81.87)"/><path class="cls-1" d="M43,67.55H188.51V3.71H9.84A6.69,6.69,0,0,0,3.15,10.4V60.86a6.68,6.68,0,0,0,6.69,6.69h18.8" transform="translate(-2.65 -3.21)"/></svg>